<svg width="150" height="71" viewBox="0 0 150 71" fill="none" xmlns="http://www.w3.org/2000/svg">
<path d="M15.5719 43.9787C14.4195 43.9787 13.267 43.9787 12.1145 43.9787C10.9295 43.9678 10.7881 43.8048 11.0491 42.5767C11.4948 40.5009 11.9406 38.4359 12.4081 36.371C13.0713 33.4366 13.7671 30.513 14.4086 27.5677C14.6587 26.4048 15.3654 25.981 16.4743 25.9918C18.7031 26.0027 20.9428 25.981 23.1716 26.0027C23.6174 26.0136 24.4111 25.7419 24.3132 26.6005C24.2262 27.296 24.2697 28.2633 23.0955 28.2633C21.3777 28.2524 19.6708 28.2959 17.9529 28.2524C17.1484 28.2307 16.7135 28.4807 16.5722 29.3066C16.4091 30.2522 16.1699 31.1977 15.9307 32.1324C15.6915 33.0779 15.9525 33.5235 17.0179 33.4692C18.3552 33.4039 19.6925 33.4474 21.0407 33.4583C21.5734 33.4583 22.2584 33.317 22.204 34.2191C22.1496 34.9907 22.0844 35.7515 21.0081 35.7406C19.5512 35.7297 18.1052 35.7841 16.6483 35.7189C15.5937 35.6754 14.9957 35.9362 14.8544 37.11C14.713 38.2838 14.3651 39.4358 14.0933 40.5878C13.8976 41.4138 14.1803 41.7398 15.0501 41.7181C16.757 41.6746 18.4748 41.6964 20.1926 41.7072C20.5514 41.7072 21.0189 41.5551 21.2038 41.9572C21.4103 42.3919 21.182 42.8158 20.8993 43.1962C20.4753 43.7396 19.9317 43.9678 19.2468 43.957C18.0291 43.957 16.8005 43.9678 15.5719 43.9787C15.5719 43.9678 15.5719 43.9787 15.5719 43.9787Z" fill="white"/>
<path d="M78.6746 42.6201C77.6635 43.533 76.6089 44.0656 75.3368 44.2068C72.5752 44.5112 70.5965 43.1635 69.8246 40.4791C68.9656 37.5012 70.4225 32.0019 74.467 30.8281C76.511 30.2412 78.5333 30.2847 80.0989 32.0779C80.9578 33.0561 80.9035 31.9367 80.9687 31.6323C81.3818 29.8608 81.7189 28.0784 82.0668 26.2852C82.3168 24.9701 82.7952 24.6006 84.0129 24.6984C84.6327 24.7419 84.774 25.0354 84.6544 25.5788C83.8716 29.1653 83.0779 32.7518 82.306 36.3491C81.8928 38.3054 81.3383 40.24 81.1209 42.2397C81.0883 42.5331 81.023 42.8266 80.9252 43.1092C80.6534 43.8699 80.0554 44.0438 79.3161 43.9895C78.4463 43.9134 78.8812 43.207 78.6746 42.6201ZM72.2165 38.3598C72.1947 40.3269 72.8906 41.6311 74.2061 42.1093C75.6304 42.631 77.2938 42.1202 78.2723 40.7942C79.4792 39.1423 80.0337 37.2838 79.7727 35.2406C79.5009 33.1865 77.3808 31.9584 75.4455 32.6974C73.5972 33.4147 72.2491 35.784 72.2165 38.3598Z" fill="white"/>
<path d="M61.953 35.9145C62.3988 35.9145 62.8446 35.8819 63.2903 35.9254C64.2797 36.0232 64.5515 35.5341 64.4319 34.6538C64.2471 33.3605 63.4425 32.6214 61.9965 32.4802C61.2137 32.4041 60.4418 32.5128 59.6807 32.7193C59.1262 32.8714 58.5283 32.9149 58.1477 32.3823C57.7998 31.9041 57.5933 31.2955 58.3869 31.0456C60.2243 30.4587 62.1052 30.2413 63.9753 30.8825C66.0954 31.6216 67.0739 33.2627 66.7042 35.5015C66.3019 37.9143 65.8344 40.327 65.3561 42.7289C65.2582 43.1962 65.3234 43.87 64.595 43.9244C63.9427 43.9787 63.4425 43.707 63.236 43.0332C63.0076 42.305 62.6597 42.6854 62.3553 42.9571C61.1267 44.0331 59.7134 44.4243 58.1151 44.1635C56.3103 43.87 55.0818 42.7615 54.8426 41.2725C54.549 39.4684 55.3971 37.6969 56.9953 36.86C58.5283 36.0558 60.2243 35.871 61.953 35.9145ZM61.5181 37.6752C60.3983 37.6534 59.0501 37.8273 57.9955 38.8924C57.3541 39.5445 57.2453 40.3705 57.5498 41.1638C57.8433 41.9138 58.5391 42.1963 59.3546 42.2181C61.192 42.2833 62.3444 41.2617 63.1381 39.7727C64.1601 37.8817 63.9644 37.6099 61.5181 37.6752Z" fill="white"/>
<path d="M93.0367 42.3485C91.5907 43.8701 89.9707 44.5004 88.0028 44.1309C86.3829 43.8266 85.2413 42.9897 84.9369 41.3269C84.6433 39.7184 85.1 38.2947 86.4481 37.2731C87.6114 36.3819 89.0031 36.0775 90.4274 35.9797C91.4276 35.9037 92.4387 35.8928 93.439 35.958C94.3849 36.0123 94.6023 35.5776 94.5262 34.7516C94.4066 33.4583 93.5151 32.6323 92.0473 32.491C91.2645 32.415 90.4926 32.5345 89.7315 32.741C89.0792 32.9149 88.4486 32.8606 88.0681 32.2085C87.7854 31.7194 87.818 31.2629 88.4595 31.0673C90.4165 30.4804 92.3952 30.2522 94.3631 31.013C95.8635 31.589 96.7985 32.904 96.8094 34.5343C96.8203 36.7514 96.0483 38.8489 95.7439 41.0117C95.6678 41.566 95.5482 42.1094 95.4504 42.6528C95.3525 43.1962 95.396 43.8701 94.6458 43.9244C93.8847 43.9787 93.3846 43.5875 93.2215 42.805C93.1889 42.6963 93.1346 42.5985 93.0367 42.3485ZM89.6011 42.2181C91.5037 42.2072 93.5151 40.3379 93.6782 38.4903C93.7108 38.1425 93.7434 37.7295 93.2868 37.7186C91.5798 37.6426 89.8403 37.4687 88.3725 38.6316C87.6006 39.2402 87.22 40.0553 87.5353 40.99C87.8615 41.9681 88.6987 42.2724 89.6011 42.2181Z" fill="white"/>
<path d="M40.2957 44.2395C37.9038 44.2721 36.6643 43.0114 36.9579 40.6312C37.1971 38.7184 37.6754 36.8382 38.0342 34.9472C38.1103 34.545 38.1756 34.1429 38.2625 33.7408C38.4256 33.0561 38.1647 32.7518 37.4689 32.8061C37.2514 32.8279 37.0231 32.8279 36.8057 32.8061C36.3708 32.7518 35.6749 33.0126 35.7184 32.241C35.7511 31.5672 35.838 30.752 36.8818 30.8281C37.1427 30.8499 37.4036 30.8064 37.6646 30.839C38.6213 30.9368 39.1323 30.5673 39.1867 29.5565C39.2519 28.2958 39.9043 27.5459 41.1655 27.2308C41.9156 27.046 42.0461 27.2525 41.9156 27.9046C41.7852 28.5241 41.6873 29.1436 41.5242 29.7522C41.3394 30.4477 41.5242 30.839 42.2962 30.8281C42.7419 30.8173 43.1877 30.8064 43.6335 30.8499C44.101 30.8933 44.8403 30.6434 44.7859 31.4693C44.7316 32.1323 44.6555 32.9583 43.59 32.8279C43.2203 32.7844 42.8507 32.8279 42.4701 32.8279C40.8393 32.8387 40.8284 32.8605 40.5349 34.4255C40.1652 36.3926 39.7303 38.3489 39.3933 40.3269C39.1758 41.5876 39.6325 42.1636 40.8719 42.2615C41.633 42.3267 42.3505 42.5006 42.3723 43.4026C42.394 44.3699 41.5025 44.0873 40.9589 44.2503C40.7523 44.2829 40.5131 44.2395 40.2957 44.2395Z" fill="white"/>
<path d="M30.4448 30.5672C31.4451 30.5781 32.1953 30.5781 32.902 30.8715C33.3477 31.0563 34.0436 31.0128 33.8044 31.8279C33.5978 32.5344 33.1085 32.8822 32.3801 32.7517C31.7278 32.6322 31.0863 32.3931 30.4013 32.4692C29.575 32.567 28.7161 32.6648 28.4226 33.6103C28.129 34.5341 28.6509 35.1753 29.3467 35.697C29.9664 36.1644 30.6188 36.6099 31.2385 37.0773C32.4562 38.0119 33.0324 39.24 32.7498 40.7833C32.4236 42.5548 31.2494 43.5439 29.5859 44.0112C28.1073 44.4242 26.6287 44.2177 25.15 43.9786C24.6499 43.9025 24.0084 43.7938 24.128 43.0765C24.2476 42.3484 24.726 41.8158 25.5414 42.0006C26.3134 42.1745 27.0853 42.2397 27.8681 42.2179C28.8683 42.1853 29.7599 41.881 30.1187 40.892C30.4992 39.8595 29.9012 39.1096 29.1075 38.5227C28.4769 38.0554 27.8246 37.6316 27.2158 37.1425C26.0524 36.2078 25.411 35.0015 25.8459 33.5125C26.3677 31.7519 27.8029 30.9802 29.4989 30.6324C29.8686 30.5346 30.2926 30.5672 30.4448 30.5672Z" fill="white"/>
<path d="M53.5377 32.7083C51.4828 32.7191 49.6563 34.3059 48.9931 36.7838C48.4821 38.7184 48.0798 40.6747 47.6667 42.6418C47.5145 43.37 47.21 43.9025 46.4055 43.9677C45.0356 44.0873 45.0138 43.7178 45.2313 42.7288C45.9815 39.4466 46.5794 36.1209 47.2427 32.8061C47.5471 31.2737 47.9711 30.8063 49.0257 30.8389C49.428 30.8498 49.7868 30.8933 49.7976 31.415C49.8194 32.2953 50.2108 31.991 50.6022 31.6649C51.5916 30.8607 52.7223 30.4694 54.0052 30.5672C54.4727 30.5998 55.1251 30.5455 54.9294 31.2954C54.7771 31.8714 55.0489 32.8822 53.8639 32.7409C53.766 32.7191 53.6464 32.7191 53.5377 32.7083Z" fill="white"/>
<path d="M149.997 15.8627C149.921 20.0361 148.518 23.8074 146.344 27.2852C141.397 35.1973 134.536 40.8379 125.893 44.3591C124.371 44.9786 123.001 44.6852 121.62 44.044C113.618 40.3814 106.769 35.3168 101.963 27.8069C98.9406 23.0901 97.8207 17.9168 98.6362 12.3523C99.419 7.00515 103.898 1.99491 109.16 0.625517C114.325 -0.722139 119.098 0.0821077 123.403 3.28823C123.979 3.71209 124.403 3.53819 124.893 3.20128C127.491 1.42976 130.318 0.31034 133.482 0.0821076C141.005 -0.483039 146.659 3.16868 149.094 10.6134C149.649 12.3088 150.04 14.0477 149.997 15.8627ZM148.866 17.3951C149.073 16.3083 148.507 16.1018 147.735 16.0475C144.419 15.8193 141.103 15.7432 137.798 16.0258C132.525 16.4822 127.448 17.6777 122.827 20.3948C120.783 21.6011 120.772 21.6011 121.685 23.753C124.219 29.7088 128.709 33.8931 134.014 37.3383C134.83 37.8708 135.395 37.773 136.091 37.197C139.037 34.7843 141.777 32.1542 144.028 29.0676C146.626 25.5354 148.496 21.699 148.866 17.3951ZM113.944 1.02764C109.585 0.995036 106.16 2.12533 103.507 4.89672C99.0058 9.62439 98.397 15.3085 100.147 21.3077C101.593 26.2853 104.681 30.2848 108.323 33.8822C108.552 34.1104 108.78 34.4908 109.139 34.3387C109.498 34.1865 109.378 33.7518 109.378 33.4257C109.378 30.7304 109.726 28.0677 110.367 25.4702C112.335 17.569 116.347 10.8742 122.501 5.49447C123.403 4.70109 123.403 4.50546 122.425 3.8425C119.685 2.02751 116.717 0.984168 113.944 1.02764ZM143.049 14.4499C144.691 14.5259 146.322 14.5803 147.953 14.6781C148.681 14.7216 149.007 14.4716 148.888 13.7108C148.475 10.8742 147.648 8.16805 145.746 5.9618C141.951 1.54931 137.091 0.299472 131.525 1.49497C122.262 3.48385 119.293 11.635 120.37 19.221C120.479 19.9709 120.816 20.0687 121.424 19.6775C122.642 18.895 123.925 18.2211 125.262 17.6451C130.949 15.1998 136.917 14.3847 143.049 14.4499ZM124.132 43.6745C124.708 43.6201 125.241 43.5114 125.784 43.3267C128.22 42.4681 130.459 41.2291 132.612 39.8271C134.243 38.762 134.221 38.7729 132.601 37.6969C127.219 34.1539 122.751 29.7958 120.196 23.7313C119.707 22.5575 119.544 22.5249 118.608 23.3944C115.173 26.6222 112.77 30.4696 111.411 35.0016C111.085 36.0884 111.378 36.6427 112.172 37.2513C114.738 39.2294 117.413 41.0335 120.37 42.4029C121.566 42.9789 122.783 43.544 124.132 43.6745ZM110.661 31.8499C110.759 31.8933 110.867 31.9368 110.965 31.9803C111.128 31.6542 111.313 31.339 111.465 31.0021C113.085 27.47 115.347 24.4051 118.337 21.9163C119.043 21.3294 119.261 20.7426 119.076 19.8948C118.63 17.8299 118.706 15.7649 119.065 13.6891C119.315 12.2001 119.891 10.8199 120.196 9.34181C114.401 15.7758 111.215 23.264 110.661 31.8499Z" fill="#F3F7F8"/>
<path d="M148.866 17.3952C148.496 21.699 146.626 25.5355 144.039 29.0785C141.788 32.1651 139.048 34.7843 136.102 37.2079C135.406 37.773 134.841 37.8709 134.025 37.3492C128.709 33.904 124.23 29.7197 121.696 23.7639C120.783 21.612 120.783 21.612 122.838 20.4057C127.459 17.6886 132.536 16.4931 137.809 16.0367C141.114 15.7541 144.43 15.8302 147.746 16.0584C148.507 16.1019 149.084 16.3084 148.866 17.3952Z" fill="#F1AD47"/>
<path d="M113.945 1.02767C116.717 0.984201 119.696 2.02755 122.414 3.8534C123.393 4.51636 123.403 4.71199 122.49 5.50537C116.336 10.8851 112.335 17.5799 110.357 25.4811C109.704 28.0786 109.367 30.7413 109.367 33.4366C109.367 33.7518 109.487 34.1974 109.128 34.3495C108.769 34.5017 108.552 34.1213 108.313 33.8931C104.671 30.2957 101.583 26.2962 100.137 21.3186C98.3972 15.3085 98.9952 9.63528 103.496 4.90762C106.149 2.12536 109.585 0.995069 113.945 1.02767Z" fill="#853529"/>
<path d="M143.049 14.45C136.917 14.3847 130.948 15.1999 125.273 17.6452C123.936 18.2212 122.653 18.8951 121.435 19.6776C120.826 20.0688 120.478 19.971 120.38 19.2211C119.315 11.6351 122.283 3.48393 131.535 1.49505C137.102 0.299548 141.962 1.54939 145.756 5.96188C147.659 8.16813 148.485 10.8743 148.898 13.7109C149.007 14.4717 148.681 14.7217 147.963 14.6782C146.322 14.5804 144.68 14.5152 143.049 14.45Z" fill="#2A69AC"/>
<path d="M124.132 43.6745C122.783 43.5441 121.566 42.979 120.359 42.4138C117.413 41.0444 114.738 39.2403 112.161 37.2623C111.368 36.6537 111.074 36.0994 111.4 35.0126C112.77 30.4805 115.162 26.6332 118.598 23.4053C119.533 22.525 119.696 22.5685 120.185 23.7422C122.74 29.7958 127.208 34.154 132.59 37.7079C134.221 38.7838 134.243 38.773 132.601 39.8381C130.448 41.24 128.209 42.479 125.773 43.3376C125.241 43.5224 124.697 43.6202 124.132 43.6745Z" fill="#DC5F3E"/>
<path d="M110.661 31.8497C111.226 23.2638 114.401 15.7648 120.196 9.35254C119.902 10.8306 119.326 12.2109 119.065 13.6998C118.717 15.7756 118.63 17.8406 119.076 19.9056C119.261 20.7424 119.043 21.3401 118.337 21.927C115.347 24.4158 113.085 27.4698 111.465 31.0128C111.313 31.3497 111.128 31.6649 110.965 31.991C110.857 31.9366 110.759 31.8932 110.661 31.8497Z" fill="#47A087"/>
<path d="M121.631 49.3693C119.924 49.4127 118.967 50.2496 118.674 51.945C118.369 53.6296 118.054 55.3033 117.706 56.977C117.619 57.3791 117.597 58.129 116.847 57.39C113.955 54.5534 109.313 54.8903 106.866 58.129C105.138 60.4114 104.583 63.0523 104.931 65.8346C105.312 68.932 107.747 70.8992 110.78 70.8231C112.607 70.7796 114.053 69.9754 115.434 68.4973C115.499 68.8994 115.488 68.8777 115.39 69.269C115.118 70.421 115.521 70.4753 116.771 70.4536C117.032 70.4427 117.51 70.4427 117.771 70.4318C119.304 70.3775 119.761 69.8776 120.185 68.3886C120.38 67.6713 120.5 66.9432 120.652 66.215C121.663 61.3786 122.696 56.5532 123.664 51.7059C124.131 49.3258 124.066 49.3149 121.631 49.3693ZM113.781 66.6388C111.965 67.2909 110.041 66.8127 110.182 63.8457C110.106 62.335 110.682 61.0526 111.878 60.0745C113.651 58.6399 115.684 59.3137 116.271 61.4982C116.738 63.2806 115.488 66.0302 113.781 66.6388Z" fill="white"/>
<path d="M67.5742 50.9886C64.1712 50.3039 60.7681 50.0322 57.4739 51.3581C55.0276 52.3363 53.8099 54.2273 53.7664 56.9118C53.7338 59.4658 55.2885 60.7048 57.3543 61.6068C57.6261 61.7264 57.9087 61.8133 58.1805 61.9438C59.0177 62.3241 59.9419 62.5632 60.6594 63.1936C61.7466 64.15 61.6488 65.5085 60.4311 66.291C60.0288 66.5519 59.5722 66.7149 59.0829 66.791C57.5826 67.0409 56.1257 66.8453 54.6471 66.5845C52.8205 66.2693 51.3854 67.4213 51.2114 69.2363C51.1679 69.7254 51.418 69.8667 51.8203 69.9971C53.5707 70.5405 55.3646 70.8448 57.4956 70.8231C58.6698 70.9209 60.0941 70.6601 61.5183 70.334C64.5517 69.6384 66.5848 67.4213 66.8131 64.6065C67.0306 61.8025 65.6933 59.9657 62.5621 58.6833C61.6379 58.3029 60.6594 58.0312 59.8657 57.39C58.822 56.5423 59.0286 55.2598 60.2789 54.749C61.714 54.173 63.2035 54.173 64.6822 54.4556C66.7805 54.8577 67.6938 54.3252 68.2917 52.2711C68.4983 51.5103 68.3352 51.1408 67.5742 50.9886Z" fill="white"/>
<path d="M101.463 55.7163C99.2341 55.7489 98.5057 56.4227 98.1143 58.6072C97.8425 60.1396 97.5163 61.6721 97.1249 63.1827C96.8422 64.2696 96.3747 65.2803 95.3636 65.9433C94.4395 66.541 92.8086 66.7149 92.1889 66.1715C91.3517 65.4542 91.5257 64.5304 91.7214 63.5849C92.2106 61.2917 92.6455 58.9985 93.113 56.7053C93.2435 56.0532 93.0696 55.6946 92.3411 55.7163C91.6018 55.738 90.8516 55.6837 90.1123 55.7489C88.8946 55.8684 88.0031 56.4662 87.6878 57.7052C87.4703 58.5311 87.2746 59.368 87.1333 60.2048C86.731 62.498 86.0352 64.7695 86.4701 67.1496C86.8506 69.2472 88.5249 70.7035 90.6559 70.7796C92.4933 70.8448 94.0916 70.2797 95.4723 69.0733C95.6789 68.8994 95.8529 68.519 96.2008 68.682C96.4943 68.8233 96.3747 69.1494 96.3312 69.3885C96.1899 70.2145 96.5813 70.4644 97.3315 70.3992C97.7338 70.3666 98.1469 70.3883 98.5601 70.3992C98.7449 70.3992 98.9297 70.3992 99.1145 70.3992C101.104 70.3775 100.789 70.6057 101.126 68.7146C101.746 65.1607 102.55 61.6503 103.344 58.1399C103.877 55.7598 103.887 55.6837 101.463 55.7163Z" fill="white"/>
<path d="M80.8165 55.9012C79.6641 55.4664 78.479 55.5425 77.4461 55.4773C76.0327 55.5642 74.7715 55.5751 73.543 55.9664C72.9776 56.1511 72.3144 56.1511 72.2492 56.9445C72.1731 57.7705 72.5319 58.3682 73.2494 58.7812C73.88 59.1399 74.5215 59.0312 75.1956 58.9225C76.5763 58.6943 77.968 58.6399 78.9791 59.8898C79.2183 60.1832 79.4031 60.5419 79.2292 60.9223C79.0226 61.3679 78.5986 61.2592 78.2507 61.2048C76.7177 61.0092 75.1956 61.1288 73.6952 61.4113C72.0644 61.7265 70.5422 62.3243 69.455 63.661C67.2806 66.3346 68.607 70.1168 71.9774 70.6819C74.0322 71.0297 75.9784 70.7254 77.5983 69.2256C77.8375 69.0082 78.1419 68.5083 78.4464 69.1169C79.077 70.3885 80.1968 70.4428 81.3927 70.4102C82.0342 70.3885 82.3495 70.1167 82.4365 69.5081C82.5343 68.8126 82.6539 68.117 82.7953 67.4214C83.2084 65.3456 83.8064 63.3133 84.0565 61.2048C84.35 58.6399 83.241 56.8141 80.8165 55.9012ZM78.2615 65.4326C77.5548 66.8346 76.2502 67.5084 74.6846 67.3019C73.9779 67.2149 73.4886 66.8563 73.3147 66.1825C73.1298 65.476 73.5104 64.9652 74.0648 64.5957C75.0325 63.9436 76.1741 63.9762 77.0873 63.8567C78.6312 63.8349 78.8813 64.2153 78.2615 65.4326Z" fill="white"/>
<path d="M135.395 56.0098C129.698 54.2166 124.806 56.9554 123.697 62.5742C123.088 65.6499 124.349 68.4865 126.893 69.8016C129.72 71.2579 132.666 70.921 135.58 70.0624C136.341 69.845 136.461 68.7582 135.906 67.9974C135.439 67.378 134.808 67.1497 134.047 67.2258C132.971 67.3236 131.894 67.3888 130.818 67.2258C129.97 67.1062 129.274 66.7259 128.774 66.0194C128.524 65.6716 128.393 65.2587 128.556 64.8674C128.741 64.4327 129.198 64.5848 129.546 64.574C130.883 64.5631 132.22 64.5631 133.569 64.5631C134.569 64.5631 135.58 64.574 136.58 64.5631C139.298 64.5196 138.657 64.9217 139.027 62.3242C139.44 59.4224 138.015 56.8467 135.395 56.0098ZM133.895 61.7482C133.188 61.7156 132.481 61.7374 131.775 61.7374V61.7482C131.035 61.7482 130.285 61.7482 129.546 61.7482C128.926 61.7482 128.785 61.4222 128.97 60.8679C129.578 59.0855 132.471 58.1617 133.949 59.292C134.406 59.6398 134.678 60.1289 134.765 60.7049C134.884 61.4113 134.656 61.7808 133.895 61.7482Z" fill="white"/>
<path d="M4.71063 52.1625C4.28661 52.3473 4.01481 52.4994 3.52556 52.1951C2.77537 51.7278 2.2535 52.0429 2.13391 52.9341C1.6664 56.2815 0.709643 59.5311 0.144286 62.8568C0.0681806 63.2698 -0.257986 63.8023 0.426966 63.9545C1.05756 64.0958 1.49245 63.7806 1.62291 63.0959C1.79687 62.2264 1.97082 61.3461 2.16653 60.4875C2.29699 59.955 2.48182 59.5746 3.14503 60.0637C4.63453 61.1613 7.51567 60.8896 8.71162 58.6508C9.2661 57.6183 9.49442 56.4989 9.57053 55.5968C9.62489 52.4994 7.37433 51.0213 4.71063 52.1625ZM6.95031 58.3139C6.29798 59.2594 5.38471 59.542 4.31923 59.2268C3.28637 58.9225 2.94933 58.0965 2.93846 57.0749C2.92758 55.8685 3.28637 54.7926 4.10178 53.934C4.80848 53.1841 5.70001 52.8472 6.722 53.2167C7.75486 53.5862 7.90707 54.4448 7.84184 55.336C7.90707 56.4772 7.54829 57.4336 6.95031 58.3139Z" fill="white"/>
<path d="M31.7393 52.5427C30.8587 51.8146 28.3145 51.5646 27.336 52.108C27.086 52.2493 26.9446 52.4558 27.0099 52.7492C27.0751 53.0209 27.2599 53.2383 27.5426 53.2492C27.8688 53.26 28.2058 53.1948 28.532 53.1296C29.293 52.9883 30.0215 53.0644 30.6412 53.5643C31.0217 53.8687 31.1413 54.3034 31.0435 54.7707C30.913 55.3467 30.4346 55.2272 30.0432 55.2054C28.9886 55.162 27.9666 55.3141 26.9555 55.6184C25.7052 55.9988 24.8789 57.0313 24.8789 58.2268C24.8789 59.3136 25.4225 60.1179 26.4336 60.4439C27.4448 60.7699 28.4994 60.7482 29.4235 60.0853C29.7932 59.8244 30.0759 59.6831 30.4673 60.0961C31.0978 60.7591 31.5001 60.4765 31.6741 59.6831C32.0111 58.0855 32.4025 56.4987 32.5439 54.8577C32.5982 53.9773 32.4895 53.1622 31.7393 52.5427ZM30.576 57.1074C30.3585 58.3789 29.3039 59.3027 27.9775 59.3245C27.4665 59.2919 26.8903 59.2484 26.6837 58.5854C26.488 57.9551 26.6946 57.4225 27.2164 57.0204C28.108 56.3249 29.1626 56.4444 30.1954 56.4661C30.5977 56.477 30.6412 56.7705 30.576 57.1074Z" fill="white"/>
<path d="M14.2784 51.8691C13.9087 51.8908 13.5391 51.956 13.1694 52.0104C12.7563 52.0647 12.267 52.1082 12.3431 52.6842C12.4192 53.2711 12.8976 53.3254 13.376 53.2276C13.9631 53.108 14.5502 52.945 15.1373 53.1298C15.9092 53.3798 16.5072 53.8362 16.3767 54.7274C16.2463 55.6186 15.4743 55.0752 15.0177 55.2382C14.0501 55.1404 13.1477 55.4012 12.2561 55.6512C10.8862 56.0425 10.0491 57.3467 10.2665 58.6182C10.484 59.9224 11.506 60.6289 13.0607 60.6071C13.713 60.5963 14.3219 60.4332 14.8329 60.0311C15.1699 59.7703 15.4308 59.6725 15.7788 60.042C16.5289 60.8354 16.8769 60.3028 17.0291 59.5746C17.3117 58.2705 17.5618 56.9554 17.7575 55.6295C18.1598 52.9342 16.9965 51.6952 14.2784 51.8691ZM15.4852 57.9662C14.9307 58.9117 14.137 59.4116 13.0172 59.2921C12.5388 59.2377 12.1365 59.053 11.9843 58.5856C11.8321 58.14 11.9191 57.7162 12.2344 57.3467C12.865 56.5859 13.7239 56.4555 14.7241 56.4555C15.0503 56.5315 15.5939 56.2272 15.844 56.7489C16.0397 57.1836 15.7027 57.5858 15.4852 57.9662Z" fill="white"/>
<path d="M44.242 52.3254C42.9482 51.6081 41.5783 51.8037 40.2192 52.1189C39.9474 52.1841 39.7735 52.4123 39.8387 52.7167C39.8931 52.9884 40.0888 53.2166 40.3606 53.2383C40.6867 53.2601 41.0238 53.2057 41.3499 53.1405C41.9914 53.021 42.6111 53.0427 43.1982 53.3579C43.7418 53.6513 44.0571 54.1187 43.9702 54.7273C43.8723 55.4554 43.2417 55.2381 42.8068 55.2163C41.7848 55.1729 40.8063 55.3685 39.8387 55.6402C38.3818 56.0532 37.5664 57.3791 37.8165 58.8028C38.023 59.9657 39.1103 60.6613 40.6324 60.6287C41.2956 60.607 41.8936 60.4439 42.3937 60.0201C42.7851 59.694 43.0025 59.6614 43.3613 60.107C43.731 60.5635 44.3072 60.7591 44.492 59.9331C44.8726 58.2377 45.177 56.5097 45.5032 54.8034C45.5466 53.7165 45.1879 52.8579 44.242 52.3254ZM43.0134 57.9877C42.5241 58.8463 41.7848 59.368 40.7411 59.3028C40.2627 59.2702 39.7408 59.2158 39.5778 58.6398C39.4147 58.0747 39.4908 57.5421 39.9583 57.1183C40.578 56.564 41.3391 56.4336 42.3611 56.4771C42.5568 56.5097 43.1221 56.238 43.3831 56.6727C43.6549 57.1291 43.2308 57.5965 43.0134 57.9877Z" fill="white"/>
<path d="M96.1896 54.2055C97.8204 54.1946 98.3749 54.0098 99.223 53.3143C99.9079 52.7491 100.658 52.184 101.332 51.6188C101.724 51.2819 102.343 50.9994 102.137 50.3473C101.93 49.6843 101.039 49.793 100.517 49.793C97.8204 49.8147 96.7767 49.9126 95.1024 52.347C94.8197 52.76 94.3957 53.2056 94.6349 53.7381C94.9067 54.3794 95.472 54.2163 96.1896 54.2055Z" fill="white"/>
<path d="M25.466 52.3688C25.4551 51.8689 24.9984 51.8363 24.6288 51.8689C24.0417 51.9232 23.4546 51.9993 22.9545 52.3797C22.7479 52.5318 22.5413 52.7057 22.1934 52.4123C21.4215 51.7819 20.9431 51.9232 20.7148 52.8687C20.182 55.1402 19.7254 57.4225 19.2361 59.7048C19.1926 60.0744 19.2035 60.4004 19.6601 60.4656C20.2146 60.5417 20.6278 60.2917 20.7691 59.7701C20.9757 58.9875 21.0844 58.1724 21.291 57.3899C21.7911 55.4445 22.1064 53.3361 24.8136 53.26C25.3572 53.2383 25.4768 52.7601 25.466 52.3688Z" fill="white"/>
</svg>
