<svg width="52" height="45" viewBox="0 0 52 45" fill="none" xmlns="http://www.w3.org/2000/svg">
<path d="M51.6185 15.8627C51.5424 20.0361 50.1399 23.8074 47.9654 27.2852C43.0186 35.1973 36.1582 40.8379 27.5147 44.3591C25.9926 44.9786 24.6227 44.6852 23.2419 44.044C15.24 40.3814 8.39043 35.3168 3.58489 27.8069C0.562408 23.0901 -0.557431 17.9168 0.257988 12.3523C1.04079 7.00515 5.52015 1.99491 10.7823 0.625517C15.9466 -0.722139 20.7196 0.0821077 25.025 3.28823C25.6012 3.71209 26.0252 3.53819 26.5145 3.20128C29.113 1.42976 31.9397 0.31034 35.1036 0.0821076C42.6272 -0.483039 48.2807 3.16868 50.7161 10.6134C51.2706 12.3088 51.662 14.0477 51.6185 15.8627ZM50.4878 17.3951C50.6944 16.3083 50.129 16.1018 49.3571 16.0475C46.041 15.8193 42.725 15.7432 39.4198 16.0258C34.1468 16.4822 29.0695 17.6777 24.4488 20.3948C22.4048 21.6011 22.3939 21.6011 23.3072 23.753C25.8404 29.7088 30.3306 33.8931 35.6363 37.3383C36.4517 37.8708 37.0171 37.773 37.7129 37.197C40.6593 34.7843 43.3991 32.1542 45.6496 29.0676C48.2481 25.5354 50.1181 21.699 50.4878 17.3951ZM15.5661 1.02764C11.2063 0.995036 7.78158 2.12533 5.12875 4.89672C0.627636 9.62439 0.0188007 15.3085 1.76923 21.3077C3.21524 26.2853 6.30296 30.2848 9.94516 33.8822C10.1735 34.1104 10.4018 34.4908 10.7606 34.3387C11.1194 34.1865 10.9998 33.7518 10.9998 33.4257C10.9998 30.7304 11.3477 28.0677 11.9892 25.4702C13.957 17.569 17.9689 10.8742 24.1226 5.49447C25.025 4.70109 25.025 4.50546 24.0465 3.8425C21.3067 2.02751 18.3385 0.984168 15.5661 1.02764ZM44.6711 14.4499C46.3129 14.5259 47.9437 14.5803 49.5745 14.6781C50.303 14.7216 50.6291 14.4716 50.5095 13.7108C50.0964 10.8742 49.2701 8.16805 47.3675 5.9618C43.573 1.54931 38.7132 0.299472 33.1466 1.49497C23.8834 3.48385 20.9153 11.635 21.9916 19.221C22.1003 19.9709 22.4374 20.0687 23.0462 19.6775C24.2639 18.895 25.5469 18.2211 26.8841 17.6451C32.5703 15.1998 38.5392 14.3847 44.6711 14.4499ZM25.7534 43.6745C26.3297 43.6201 26.8624 43.5114 27.406 43.3267C29.8414 42.4681 32.0811 41.2291 34.2338 39.8271C35.8646 38.762 35.8429 38.7729 34.2229 37.6969C28.8411 34.1539 24.3726 29.7958 21.8177 23.7313C21.3284 22.5575 21.1653 22.5249 20.2303 23.3944C16.7947 26.6222 14.3919 30.4696 13.0329 35.0016C12.7067 36.0884 13.0003 36.6427 13.7939 37.2513C16.3598 39.2294 19.0344 41.0335 21.9916 42.4029C23.1876 42.9789 24.4053 43.544 25.7534 43.6745ZM12.2827 31.8499C12.3805 31.8933 12.4893 31.9368 12.5871 31.9803C12.7502 31.6542 12.935 31.339 13.0872 31.0021C14.7072 27.47 16.9686 24.4051 19.9585 21.9163C20.6652 21.3294 20.8827 20.7426 20.6978 19.8948C20.2521 17.8299 20.3282 15.7649 20.687 13.6891C20.937 12.2001 21.5132 10.8199 21.8177 9.34181C16.0227 15.7758 12.8372 23.264 12.2827 31.8499Z" fill="#F3F7F8"/>
<path d="M50.4879 17.3952C50.1183 21.699 48.2483 25.5355 45.6607 29.0785C43.4101 32.1651 40.6703 34.7843 37.7239 37.2079C37.0281 37.773 36.4627 37.8709 35.6473 37.3492C30.3308 33.904 25.8514 29.7197 23.3181 23.7639C22.4049 21.612 22.4049 21.612 24.4597 20.4057C29.0804 17.6886 34.1578 16.4931 39.4308 16.0367C42.736 15.7541 46.0521 15.8302 49.3681 16.0584C50.1292 16.1019 50.7054 16.3084 50.4879 17.3952Z" fill="#F1AD47"/>
<path d="M15.5664 1.02767C18.3388 0.984201 21.3178 2.02755 24.0359 3.8534C25.0144 4.51636 25.0253 4.71199 24.112 5.50537C17.9583 10.8851 13.9573 17.5799 11.9785 25.4811C11.3262 28.0786 10.9892 30.7413 10.9892 33.4366C10.9892 33.7518 11.1088 34.1974 10.75 34.3495C10.3912 34.5017 10.1738 34.1213 9.93456 33.8931C6.29235 30.2957 3.20462 26.2962 1.75861 21.3186C0.0190499 15.3085 0.617027 9.63528 5.11814 4.90762C7.77098 2.12536 11.2066 0.995069 15.5664 1.02767Z" fill="#853529"/>
<path d="M44.671 14.45C38.5391 14.3847 32.5702 15.1999 26.8948 17.6452C25.5575 18.2212 24.2746 18.8951 23.0569 19.6776C22.4481 20.0688 22.1002 19.971 22.0023 19.2211C20.9368 11.6351 23.905 3.48393 33.1573 1.49505C38.7239 0.299548 43.5838 1.54939 47.3782 5.96188C49.2809 8.16813 50.1072 10.8743 50.5203 13.7109C50.629 14.4717 50.3029 14.7217 49.5853 14.6782C47.9436 14.5804 46.3019 14.5152 44.671 14.45Z" fill="#2A69AC"/>
<path d="M25.7534 43.6745C24.4053 43.5441 23.1876 42.979 21.9808 42.4138C19.0344 41.0444 16.3598 39.2403 13.7831 37.2623C12.9894 36.6537 12.6958 36.0994 13.022 35.0126C14.3919 30.4805 16.7838 26.6332 20.2195 23.4053C21.1545 22.525 21.3176 22.5685 21.8068 23.7422C24.3618 29.7958 28.8303 34.154 34.2121 37.7079C35.8429 38.7838 35.8647 38.773 34.223 39.8381C32.0702 41.24 29.8305 42.479 27.3952 43.3376C26.8624 43.5224 26.3188 43.6202 25.7534 43.6745Z" fill="#DC5F3E"/>
<path d="M12.2827 31.8497C12.8481 23.2638 16.0228 15.7648 21.8177 9.35254C21.5241 10.8306 20.9479 12.2109 20.687 13.6998C20.3391 15.7756 20.2521 17.8406 20.6978 19.9055C20.8827 20.7424 20.6652 21.3401 19.9585 21.927C16.9687 24.4158 14.7072 27.4698 13.0873 31.0128C12.9351 31.3497 12.7502 31.6649 12.5871 31.991C12.4784 31.9366 12.3806 31.8932 12.2827 31.8497Z" fill="#47A087"/>
</svg>
