<svg width="20" height="20" viewBox="0 0 20 20" fill="none" xmlns="http://www.w3.org/2000/svg">
<path d="M19.2734 12.4062C19.5078 12.5104 19.5859 12.6927 19.5078 12.9531C19.0651 14.3333 18.349 15.5573 17.3594 16.625C17.2031 16.8073 17.0208 16.8464 16.8125 16.7422L15.1328 15.7656C14.4297 16.3646 13.6354 16.8203 12.75 17.1328V19.0469C12.75 19.3073 12.6328 19.4635 12.3984 19.5156C10.9661 19.8281 9.54688 19.8281 8.14062 19.5156C7.88021 19.4635 7.75 19.3073 7.75 19.0469V17.1328C6.86458 16.8203 6.07031 16.3646 5.36719 15.7656L3.72656 16.7422C3.49219 16.8464 3.29688 16.8073 3.14062 16.625C2.15104 15.5573 1.4349 14.3333 0.992188 12.9531C0.914062 12.7188 0.992188 12.5365 1.22656 12.4062L2.86719 11.4297C2.78906 10.987 2.75 10.5312 2.75 10.0625C2.75 9.59375 2.78906 9.13802 2.86719 8.69531L1.22656 7.71875C0.992188 7.61458 0.914062 7.43229 0.992188 7.17188C1.4349 5.79167 2.15104 4.56771 3.14062 3.5C3.29688 3.31771 3.49219 3.29167 3.72656 3.42188L5.36719 4.35938C6.07031 3.76042 6.86458 3.30469 7.75 2.99219V1.07812C7.75 0.817708 7.86719 0.661458 8.10156 0.609375C9.53385 0.296875 10.9661 0.296875 12.3984 0.609375C12.6328 0.661458 12.75 0.817708 12.75 1.07812V2.99219C13.6354 3.30469 14.4297 3.76042 15.1328 4.35938L16.7734 3.38281C17.0078 3.27865 17.2031 3.31771 17.3594 3.5C18.349 4.56771 19.0651 5.79167 19.5078 7.17188C19.5859 7.43229 19.5078 7.61458 19.2734 7.71875L17.6328 8.69531C17.7891 9.60677 17.7891 10.5182 17.6328 11.4297L19.2734 12.4062ZM8.02344 12.2891C8.64844 12.888 9.39062 13.1875 10.25 13.1875C11.1094 13.1875 11.8385 12.888 12.4375 12.2891C13.0625 11.6641 13.375 10.9219 13.375 10.0625C13.375 9.20312 13.0625 8.47396 12.4375 7.875C11.8385 7.25 11.1094 6.9375 10.25 6.9375C9.39062 6.9375 8.64844 7.25 8.02344 7.875C7.42448 8.47396 7.125 9.20312 7.125 10.0625C7.125 10.9219 7.42448 11.6641 8.02344 12.2891Z" fill="white"/>
</svg>
