<svg width="21" height="16" viewBox="0 0 21 16" fill="none" xmlns="http://www.w3.org/2000/svg">
<path d="M19.8203 8.91866L13.2578 15.4812C12.9714 15.7676 12.6328 15.8327 12.2422 15.6765C11.8516 15.5202 11.6562 15.2338 11.6562 14.8171V11.0671H6.34375C6.08333 11.0671 5.86198 10.9759 5.67969 10.7937C5.4974 10.6114 5.40625 10.39 5.40625 10.1296V6.3796C5.40625 6.11918 5.4974 5.89782 5.67969 5.71553C5.86198 5.53324 6.08333 5.4421 6.34375 5.4421H11.6562V1.6921C11.6562 1.27543 11.8516 0.988971 12.2422 0.832721C12.6328 0.676471 12.9714 0.741575 13.2578 1.02803L19.8203 7.59053C20.0026 7.77282 20.0938 7.99418 20.0938 8.2546C20.0938 8.51501 20.0026 8.73637 19.8203 8.91866ZM7.90625 15.2858C7.90625 15.5983 7.75 15.7546 7.4375 15.7546H4.15625C3.11458 15.7546 2.22917 15.39 1.5 14.6608C0.770833 13.9317 0.40625 13.0463 0.40625 12.0046V4.5046C0.40625 3.46293 0.770833 2.57751 1.5 1.84835C2.22917 1.11918 3.11458 0.754596 4.15625 0.754596H7.4375C7.75 0.754596 7.90625 0.910846 7.90625 1.22335V2.78585C7.90625 3.09835 7.75 3.2546 7.4375 3.2546H4.15625C3.81771 3.2546 3.51823 3.3848 3.25781 3.64522C3.02344 3.8796 2.90625 4.16605 2.90625 4.5046V12.0046C2.90625 12.3431 3.02344 12.6426 3.25781 12.903C3.51823 13.1374 3.81771 13.2546 4.15625 13.2546H7.4375C7.75 13.2546 7.90625 13.4108 7.90625 13.7233V15.2858Z" fill="white"/>
</svg>
