<svg width="23" height="18" viewBox="0 0 23 18" fill="none" xmlns="http://www.w3.org/2000/svg">
<path d="M10.9375 4.53125C11.0417 4.47917 11.1458 4.45312 11.25 4.45312C11.3542 4.45312 11.4583 4.47917 11.5625 4.53125L18.75 10.4688V16.875C18.75 17.0573 18.6849 17.2005 18.5547 17.3047C18.4505 17.4349 18.3073 17.5 18.125 17.5H13.75C13.5677 17.5 13.4115 17.4349 13.2812 17.3047C13.1771 17.1745 13.125 17.0312 13.125 16.875V13.125C13.125 13.0208 13.099 12.9167 13.0469 12.8125C12.9948 12.7083 12.9167 12.6302 12.8125 12.5781C12.7083 12.526 12.6042 12.5 12.5 12.5H10C9.81771 12.5 9.66146 12.5651 9.53125 12.6953C9.42708 12.7995 9.375 12.9427 9.375 13.125V16.875C9.375 17.0312 9.3099 17.1745 9.17969 17.3047C9.07552 17.4349 8.93229 17.5 8.75 17.5H4.375C4.19271 17.5 4.03646 17.4349 3.90625 17.3047C3.80208 17.2005 3.75 17.0573 3.75 16.875V10.4688L10.9375 4.53125ZM22.3438 8.55469C22.4479 8.65885 22.5 8.78906 22.5 8.94531C22.5 9.04948 22.4609 9.14062 22.3828 9.21875L21.4062 10.4297C21.3021 10.5599 21.1849 10.625 21.0547 10.625C20.9245 10.625 20.8203 10.5859 20.7422 10.5078L11.5625 2.92969C11.4583 2.8776 11.3542 2.85156 11.25 2.85156C11.1458 2.85156 11.0417 2.8776 10.9375 2.92969L1.75781 10.5078C1.67969 10.5859 1.58854 10.625 1.48438 10.625C1.32812 10.625 1.19792 10.5599 1.09375 10.4297L0.117188 9.21875C0.0390625 9.14062 0 9.04948 0 8.94531C0 8.78906 0.0520833 8.65885 0.15625 8.55469L10.0391 0.429688C10.4036 0.143229 10.8073 0 11.25 0C11.6927 0 12.0833 0.143229 12.4219 0.429688L15.9375 3.32031V0.46875C15.9375 0.338542 15.9766 0.234375 16.0547 0.15625C16.1589 0.0520833 16.276 0 16.4062 0H18.5938C18.724 0 18.8281 0.0520833 18.9062 0.15625C19.0104 0.234375 19.0625 0.338542 19.0625 0.46875V5.89844L22.3438 8.55469Z" fill="white"/>
</svg>
