<svg width="18" height="19" viewBox="0 0 18 19" fill="none" xmlns="http://www.w3.org/2000/svg">
<path d="M16.75 7.75C17.0885 7.75 17.375 7.88021 17.6094 8.14062C17.8698 8.375 18 8.66146 18 9V10.25C18 10.5885 17.8698 10.888 17.6094 11.1484C17.375 11.3828 17.0885 11.5 16.75 11.5H11.125V17.125C11.125 17.4635 10.9948 17.75 10.7344 17.9844C10.5 18.2448 10.2135 18.375 9.875 18.375H8.625C8.28646 18.375 7.98698 18.2448 7.72656 17.9844C7.49219 17.75 7.375 17.4635 7.375 17.125V11.5H1.75C1.41146 11.5 1.11198 11.3828 0.851562 11.1484C0.617188 10.888 0.5 10.5885 0.5 10.25V9C0.5 8.66146 0.617188 8.375 0.851562 8.14062C1.11198 7.88021 1.41146 7.75 1.75 7.75H7.375V2.125C7.375 1.78646 7.49219 1.5 7.72656 1.26562C7.98698 1.00521 8.28646 0.875 8.625 0.875H9.875C10.2135 0.875 10.5 1.00521 10.7344 1.26562C10.9948 1.5 11.125 1.78646 11.125 2.125V7.75H16.75Z" fill="white"/>
</svg>
