<svg width="20" height="20" viewBox="0 0 20 20" fill="none" xmlns="http://www.w3.org/2000/svg">
<path d="M3.375 3.35156C5.27604 1.45052 7.56771 0.5 10.25 0.5C12.9323 0.5 15.2109 1.45052 17.0859 3.35156C18.987 5.22656 19.9375 7.50521 19.9375 10.1875C19.9375 12.8698 18.987 15.1615 17.0859 17.0625C15.2109 18.9375 12.9323 19.875 10.25 19.875C7.56771 19.875 5.27604 18.9375 3.375 17.0625C1.5 15.1615 0.5625 12.8698 0.5625 10.1875C0.5625 7.50521 1.5 5.22656 3.375 3.35156ZM12.6719 5.26562C11.9948 4.58854 11.1875 4.25 10.25 4.25C9.3125 4.25 8.50521 4.58854 7.82812 5.26562C7.15104 5.94271 6.8125 6.75 6.8125 7.6875C6.8125 8.625 7.15104 9.43229 7.82812 10.1094C8.50521 10.7865 9.3125 11.125 10.25 11.125C11.1875 11.125 11.9948 10.7865 12.6719 10.1094C13.349 9.43229 13.6875 8.625 13.6875 7.6875C13.6875 6.75 13.349 5.94271 12.6719 5.26562ZM4.54688 15.0312C6.03125 16.8021 7.93229 17.6875 10.25 17.6875C12.5677 17.6875 14.4688 16.8021 15.9531 15.0312C15.5885 14.3281 15.0677 13.7682 14.3906 13.3516C13.7135 12.9089 12.9583 12.6875 12.125 12.6875C12.0469 12.6875 11.9557 12.7005 11.8516 12.7266C11.3047 12.9089 10.7708 13 10.25 13C9.72917 13 9.19531 12.9089 8.64844 12.7266C8.54427 12.7005 8.45312 12.6875 8.375 12.6875C7.54167 12.6875 6.78646 12.9089 6.10938 13.3516C5.43229 13.7682 4.91146 14.3281 4.54688 15.0312Z" fill="white"/>
</svg>
