<?xml version="1.0" encoding="utf-8"?>
<!-- Generator: Adobe Illustrator 24.1.0, SVG Export Plug-In . SVG Version: 6.00 Build 0)  -->
<svg version="1.1" id="Camada_1" xmlns="http://www.w3.org/2000/svg" xmlns:xlink="http://www.w3.org/1999/xlink" x="0px" y="0px"
	 viewBox="0 0 658.5 603.5" style="enable-background:new 0 0 658.5 603.5;" xml:space="preserve">
<style type="text/css">
	.st0{fill:#E2C80C;}
	.st1{fill:#BC083C;}
	.st2{fill:#1F0249;}
	.st3{fill:#444444;}
	.st4{fill:#9D0045;}
	.st5{fill:#2C313A;}
	.st6{fill:#181D27;}
	.st7{fill:#E5E7EA;}
	.st8{fill:#CCCDCE;}
	.st9{fill:#4A80AA;}
	.st10{fill:#DD636E;}
	.st11{fill:#E7ECF6;}
	.st12{fill:#365E7D;}
</style>
<g>
	<path class="st4" d="M238.5,482.9c-0.1,4.7,0,8.5,0.4,11.5c0.4,3,0.7,5.6,1.2,7.5c0.4,2.3,0.9,4.1,1.6,5.4l-18.3-0.2
		c-3.3-0.4-6.1-1.8-8.3-4c-2.2-2.3-3.5-5.1-3.8-8.4c-0.1-1-0.2-2.4-0.2-4.2c0-1.8,0-4.3,0-7.6c0-3.3,0-7.7,0-13.2l-0.2-5
		c-0.1-1.1-0.5-2.2-1.1-3.1c-0.5-0.8-1.4-1.6-2.7-2.2c-1.3-0.6-3.1-0.9-5.4-0.9h-9.2v48.6h-27.5v-91.4c-0.1-1.1-0.4-2-1-2.6
		c-0.6-0.6-1-0.9-1.2-1c-0.5-0.3-0.8-0.7-0.8-1.2c0-1,0.5-1.6,1.6-1.6h1.4h37.7c8.2,0.1,14.6,1.1,19.3,3c4.7,1.9,8.2,4.1,10.6,6.5
		c2.4,2.4,3.9,4.7,4.6,7c0.7,2.3,1,3.8,1,4.7c0.1,0.3,0.2,0.6,0.2,1s0,0.7,0,1v2.8v1.6c-0.1,2.2-0.6,4.3-1.6,6.4
		c-0.8,1.8-2.1,3.7-3.9,5.7c-1.8,2-4.3,3.8-7.8,5.4c3.9,1.9,6.8,4,8.6,6.4c1.8,2.4,3,4.5,3.6,6.5c0.3,0.8,0.5,1.6,0.6,2.2
		c0.1,0.7,0.2,1.2,0.2,1.6c0.1,0.3,0.2,0.6,0.2,1c0,0.4,0,0.7,0,1V482.9z M210.9,424.4c-0.1-1.1-0.5-2.2-1.1-3.1
		c-0.5-0.8-1.4-1.6-2.7-2.2c-1.3-0.6-3.1-0.9-5.4-0.9h-9.2l0.2,31.8h9.2c2.3,0,4-0.3,5.2-0.9c1.2-0.6,2.1-1.3,2.7-2.2
		c0.6-0.9,1-2,1.2-3.3L210.9,424.4z"/>
	<path class="st4" d="M334.7,411.5c0,0.5-0.3,0.9-0.8,1.2c-0.1,0.1-0.4,0.4-0.9,0.9c-0.5,0.5-0.9,1.2-1.1,2.2v70.6
		c0,0.2-0.1,0.6-0.2,1.3c-0.1,0.7-0.3,1.5-0.5,2.6c-0.5,1.6-1.4,3.3-2.6,5.4c-1.2,2-3.2,3.9-5.9,5.7c-2.7,1.8-6.2,3.3-10.6,4.6
		c-4.4,1.2-10,1.9-16.8,1.9c-3.4,0-6.5-0.2-9.3-0.5c-6.2-0.7-11.1-2.1-14.7-4c-3.6-2-6.4-4-8.2-6.2c-1.9-2.2-3.1-4.2-3.6-6.2
		c-0.5-2-0.8-3.3-0.8-4c-0.1-0.5-0.2-1.2-0.2-2.2V416c-0.2-1.1-0.6-1.9-1.1-2.4c-0.5-0.5-0.9-0.7-1.1-0.9c-0.5-0.3-0.8-0.7-0.8-1.2
		c0-1,0.5-1.6,1.4-1.6h0.2h1.4h16.1c3.1,0,5.8,1.1,8,3.3c2.2,2.2,3.3,4.9,3.3,8.1l0.2,71.5c0.1,1.1,0.5,2.2,1.1,3.1
		c0.5,0.8,1.4,1.6,2.6,2.2c1.2,0.6,3,0.9,5.3,0.9c2.3,0,4.1-0.3,5.4-0.9c1.3-0.6,2.2-1.3,2.7-2.2c0.6-0.9,1-2,1.1-3.1v-71.5
		c0-3.2,1.1-5.9,3.3-8.1c2.2-2.2,4.9-3.3,8.1-3.3h16h1.4C334.3,409.9,334.7,410.4,334.7,411.5z"/>
	<path class="st4" d="M422.3,485.8c-0.2,4-1.7,7.7-4.3,10.9c-1.1,1.3-2.6,2.7-4.3,4c-1.8,1.3-3.9,2.4-6.5,3.4
		c-2.6,1-5.6,1.8-9.2,2.4c-3.5,0.6-7.6,0.9-12.3,0.9c-3.4,0-6.5-0.2-9.3-0.5c-6.2-0.7-11.1-2.1-14.7-4c-3.6-2-6.4-4-8.2-6.2
		c-1.9-2.2-3.1-4.2-3.6-6.2c-0.5-2-0.8-3.3-0.8-4c-0.1-0.5-0.2-1.2-0.2-2.2v-53.4c0-0.3,0.1-1.1,0.2-2.3c0.1-1.2,0.6-2.6,1.4-4.3
		c0.7-1.6,1.8-3.2,3.3-5c1.5-1.8,3.6-3.4,6.4-4.9c2.7-1.4,6.2-2.7,10.2-3.6c4.1-1,9.1-1.5,15-1.5c8.5,0,15.2,0.9,20,2.8
		c4.9,1.9,8.5,4,10.9,6.4c2.4,2.4,4,4.8,4.7,7.1c0.7,2.3,1.1,3.9,1.2,4.7c0,0.3,0,0.6,0.1,1c0.1,0.4,0.1,0.7,0.1,1
		c0,3.8-1.3,7.1-4,9.7c-2.7,2.7-6,4-9.8,4c-3.8,0-7.1-1.3-9.7-4c-2.6-2.7-4-5.9-4-9.7l-0.2-8.2c-0.1-1.1-0.5-2.2-1.1-3.1
		c-0.5-0.8-1.4-1.5-2.7-2.2c-1.3-0.6-3.1-0.9-5.4-0.9c-2.4,0-4.2,0.3-5.4,1c-1.2,0.7-2.1,1.4-2.6,2.2c-0.6,0.9-1,2-1.1,3.1v63.5
		l0.2,4.7c0.1,1.1,0.5,2.2,1.1,3.1c0.5,0.8,1.4,1.6,2.6,2.2c1.2,0.6,3,0.9,5.3,0.9c2.3,0,4.1-0.3,5.4-0.9c1.3-0.6,2.2-1.3,2.7-2.2
		c0.6-0.9,1-2,1.1-3.1l0.2-8.5c0.1-3.7,1.5-6.9,4.1-9.5c2.6-2.6,5.8-3.9,9.5-3.9c3.8,0,7.1,1.3,9.8,4c2.7,2.6,4,5.9,4,9.7V485.8z"/>
	<path class="st4" d="M514.3,501.9c0.4,2.3,0.9,4.1,1.6,5.4l-16.3-0.1c-4.6,0-8.7-2.8-10.4-7l-9.5-35.4c-0.1-1.1-0.5-2.2-1.1-3.1
		c-0.5-0.8-1.4-1.6-2.7-2.2c-1.3-0.6-3.1-0.9-5.4-0.9h-3.6v14v34.6h-27.5v-91.4c-0.1-1.1-0.4-2-1-2.6c-0.6-0.6-1-0.9-1.2-1
		c-0.5-0.3-0.8-0.7-0.8-1.2c0-1,0.5-1.6,1.6-1.6h1.4h27.5v26l0.2,14.5h3.6c2.3,0,4-0.3,5.2-0.9c1.2-0.6,2.1-1.4,2.7-2.2
		c0.6-0.9,1-2,1.2-3.3l5.5-34.1h27.5c0,0-6.1,31.8-7.1,33.9c-0.8,1.8-2.1,3.7-3.9,5.7c-1.8,2-4.3,3.8-7.8,5.4c3.9,1.9,6.8,4,8.6,6.4
		c1.8,2.4,2.9,4.6,3.6,6.5C508.2,472.4,513.9,500,514.3,501.9z"/>
	<path class="st4" d="M592.7,470.4c3.8,0,7.1,1.3,9.8,4c2.7,2.6,4,5.9,4,9.7c0,0.4,0,0.8-0.1,1.1c-0.1,0.3-0.1,0.7-0.1,1.1
		c-0.1,0.7-0.4,2.1-0.9,4c-0.5,2-1.7,4-3.6,6.2c-1.9,2.2-4.6,4.2-8.2,6.2c-3.6,2-8.5,3.3-14.7,4c-2.8,0.3-5.9,0.5-9.3,0.5h-18.8
		c-5.3,0-11.2-0.1-17.8-0.2v-91.4c-0.1-1.1-0.4-2-1-2.6c-0.6-0.6-1-0.9-1.2-1c-0.5-0.3-0.8-0.7-0.8-1.2c0-1,0.5-1.6,1.6-1.6h1.4
		l36.9-0.2c5.9,0,10.9,0.5,15,1.5c4.1,1,7.5,2.2,10.2,3.6c2.7,1.4,4.9,3.1,6.4,4.9c1.5,1.8,2.6,3.5,3.3,5c0.8,1.6,1.3,3.1,1.5,4.3
		c0.2,1.2,0.2,1.9,0.2,2.2v1.5c0,3.8-1.3,7.1-4,9.7c-2.7,2.7-6,4-9.8,4c-3.7,0-6.9-1.3-9.5-3.9c-2.6-2.6-4-5.7-4.1-9.3l-0.2-8.5
		c-0.1-1.1-0.5-2.2-1.1-3.1c-0.5-0.8-1.4-1.6-2.7-2.2c-1.3-0.7-3.1-1-5.4-1h-9.1l-0.3,38.8h5.4c0.8,0,1.5-0.2,1.9-0.7
		c0.5-0.5,0.9-1.1,1.3-1.8c0.2-0.8,0.5-1.4,0.8-1.7c0.7-0.7,1.5-1.1,2.3-1.1h1.9c0.8,0,1.6,0.4,2.3,1.1c0.6,0.5,0.9,1.2,0.9,2.2
		v15.2c0,0.6-0.3,1.3-0.8,2c-0.7,0.7-1.6,1.1-2.5,1.1h-1.9c-1,0-1.9-0.5-2.6-1.6c-0.2-0.2-0.3-0.4-0.3-0.6c-0.4-0.8-0.9-1.5-1.4-1.9
		c-0.5-0.5-1.2-0.7-2-0.7h-5.4l0.2,30.4h9.2c2.3,0,4.1-0.3,5.4-0.9c1.3-0.6,2.2-1.3,2.7-2.2c0.6-0.9,1-2,1.1-3.1v-4.7l0.2-3.6
		c0-3.8,1.3-7.1,4-9.7C585.6,471.8,588.9,470.4,592.7,470.4z"/>
	<path class="st4" d="M143.9,413.6c-2.7-2.7-6-4-9.9-4l-30.8-0.1l0,0l-2.6,0c0,0,0,0-0.1,0H86.9h-1.6c-0.1,0-0.2,0-0.3,0l-18.6,0
		c-3.8,0-7.1,1.3-9.9,4c-2.7,2.7-4.1,5.9-4.1,9.8c0,0.5,0,1,0.1,1.3c0,0.4,0.1,0.8,0.2,1.3c0.6,3.1,2.2,5.7,4.7,7.8
		c2.5,2.1,5.5,3.2,8.8,3.2c3.7,0,6.9-1.3,9.6-4c2.7-2.6,4-5.9,4-9.7v-0.2v-1.1c0.1-1.1,0.5-2.2,1.1-3.1c0.5-0.8,1.4-1.6,2.6-2.2
		c0.8-0.4,1.9-0.7,3.2-0.9c0,0.1,0,0.1,0,0.2v78.5c0.3,3.3,1.6,6.1,3.9,8.4c2.3,2.3,5,3.6,8.2,4l18.3,0.2c-0.6-1.3-1.1-3.2-1.6-5.4
		c-0.4-2-0.8-4.5-1.1-7.5c-0.3-3-0.4-6.9-0.3-11.6v-59.4c0-2.8-0.7-5.3-2.2-7.5c1.9,0.1,3.4,0.5,4.5,1c1.2,0.6,2.1,1.3,2.6,2.2
		c0.6,0.9,1,2,1.1,3.1v1.1v0.2c0,3.8,1.3,7.1,4,9.7c2.7,2.6,5.9,4,9.6,4c3.3,0,6.2-1.1,8.8-3.2c2.5-2.1,4.1-4.7,4.7-7.8
		c0.1-0.5,0.2-1,0.2-1.3c0.1-0.4,0.1-0.8,0.1-1.3C148,419.5,146.6,416.3,143.9,413.6z"/>
</g>
<g>
	<g>
		<path class="st4" d="M67.3,258.1l259.1,50.8l17.3-88.3l-0.1,0l0-0.1l0,0.1l17.3-88.3L102,81.4L67.3,258.1z M67.3,258.1"/>
		<g>
			<defs>
				<path id="SVGID_1_" d="M67.3,258.1l259.1,50.8l17.3-88.3l-0.1,0l0-0.1l0,0.1l17.3-88.3L102,81.4L67.3,258.1z M67.3,258.1"/>
			</defs>
			<clipPath id="SVGID_2_">
				<use xlink:href="#SVGID_1_"  style="overflow:visible;"/>
			</clipPath>
		</g>
		<path class="st7" d="M366.9,133.4l-34.6,176.7c-0.6,3.3-3.8,5.4-7,4.7L66.2,264c-3.3-0.6-5.4-3.8-4.7-7L96.1,80.3
			c0.6-3.3,3.8-5.4,7-4.7l259.1,50.8C365.5,127,367.6,130.2,366.9,133.4L366.9,133.4z M321.7,301.9L354,137L106.7,88.5L74.4,253.4
			L321.7,301.9z M321.7,301.9"/>
	</g>
	<g>
		<path class="st7" d="M99.9,315.7h264v-90l-0.1,0.1v-0.1h0.1v-90h-264V315.7z M99.9,135.7"/>
		<path class="st4" d="M120.5,181.1c-3.5-3.4-3.5-9,0-12.4c-3.5-3.4-3.5-9,0-12.4c3.4-3.4,8.9-3.4,12.4,0l12.4,12.4l-12.4,12.4
			C129.4,184.5,123.9,184.5,120.5,181.1L120.5,181.1z M120.5,181.1"/>
		<path class="st4" d="M321,295.1c-3.4-3.4-3.4-9,0-12.4c-3.4-3.4-3.4-9,0-12.4c3.5-3.4,9-3.4,12.4,0l12.4,12.4l-12.4,12.4
			C330,298.5,324.5,298.5,321,295.1L321,295.1z M321,295.1"/>
		<path class="st4" d="M207.5,252.9c-7.5-7.6-7.5-19.7,0-27.2c-7.5-7.5-7.5-19.7,0-27.2c7.5-7.4,19.7-7.4,27.2,0l27.2,27.2
			l-27.2,27.2C227.2,260.3,215,260.3,207.5,252.9L207.5,252.9z M207.5,252.9"/>
		<path class="st7" d="M369.9,315.7c0,3.3-2.7,6-6,6h-264c-3.3,0-6-2.7-6-6v-180c0-3.3,2.7-6,6-6h264c3.3,0,6,2.7,6,6V315.7
			L369.9,315.7z M105.9,141.7v168h252v-168H105.9z M357.9,141.7"/>
	</g>
	<g>
		<path class="st8" d="M376.9,285.5c4.8,0,8.7-5.8,8.7-13V245h-15.7v40.4H376.9z"/>
		<path class="st8" d="M376.9,285.5h-7v13.3h24.7V245h-9v27.4C385.6,279.6,381.7,285.5,376.9,285.5z"/>
		<path class="st8" d="M527.3,313.8c5.7,0,11,1.6,15.6,4.2c0,0,0,0,0,0c0,0,0,0,0.1,0c0.1,0,0.1,0.1,0.2,0.1
			c-2.1-13.5-10-25-21.1-32c-21.9,2.6-38.6,21.7-38.6,44.3v4.7h14.6C502.1,322.7,513.6,313.8,527.3,313.8z"/>
		<path class="st8" d="M526.6,285.9c-1.5,0-3,0.1-4.5,0.3c11.1,7,19,18.5,21.1,32c1,0.6,2,1.3,2.9,2c0.1,0.1,0.1,0.1,0.2,0.2
			c0.4,0.3,0.9,0.7,1.3,1.1c0.1,0,0.1,0.1,0.2,0.1c0.9,0.8,1.8,1.7,2.6,2.6c0.1,0.1,0.2,0.2,0.2,0.3c0.3,0.4,0.6,0.8,1,1.2
			c0.1,0.1,0.2,0.2,0.2,0.3c0.4,0.5,0.7,1,1.1,1.5c0,0,0,0,0,0c0.3,0.5,0.6,1,0.9,1.5c0.1,0.2,0.2,0.3,0.3,0.5
			c0.2,0.4,0.4,0.7,0.6,1.1c0.1,0.2,0.2,0.4,0.3,0.5c0.2,0.5,0.5,1,0.7,1.4c0.1,0.2,0.1,0.3,0.2,0.5c0.2,0.4,0.3,0.8,0.5,1.3
			c0.1,0.2,0.2,0.5,0.2,0.7c0,0.1,0.1,0.2,0.1,0.3h14.6v-5.4C571.2,305.2,551.2,285.4,526.6,285.9z"/>
		<path class="st8" d="M262.9,317.2c-1.3-12.6-7.6-23.8-17-31.3c-10.5,0.7-20,5.1-27.2,11.9h0c-0.8,0.7-1.5,1.5-2.3,2.3c0,0,0,0,0,0
			c-0.7,0.8-1.4,1.6-2.1,2.5c0,0,0,0,0,0c-1.3,1.7-2.5,3.5-3.6,5.4c0,0,0,0,0,0.1c-0.5,0.9-1,1.8-1.4,2.7c-0.1,0.1-0.1,0.2-0.2,0.3
			c-0.4,0.9-0.8,1.8-1.2,2.7c-0.1,0.1-0.1,0.3-0.2,0.4c-0.3,0.9-0.7,1.8-0.9,2.8c0,0.1-0.1,0.3-0.1,0.4c-0.3,1-0.6,2-0.8,3
			c0,0.1-0.1,0.4-0.1,0.8c0,0.2-0.1,0.4-0.3,0.5h22.6c5.4-4.9,12.7-7.9,20.6-7.9C253.8,313.8,258.6,315,262.9,317.2z"/>
		<polygon class="st9" points="269.3,321.7 269.3,321.7 295.9,321.7 295.9,321.7 295.9,321.7 		"/>
		<path class="st8" d="M175.2,317.2c-1.3-12.6-7.6-23.8-17-31.3c-10.5,0.7-20.1,5.1-27.3,11.9h0c-2.1,2-4.1,4.2-5.7,6.6
			c0,0-0.1,0.1-0.1,0.1c-0.5,0.8-1.1,1.6-1.5,2.4c0,0.1-0.1,0.1-0.1,0.2c-0.5,0.8-1,1.6-1.4,2.5c0,0,0,0,0,0
			c-0.4,0.8-0.8,1.6-1.2,2.5c-0.1,0.1-0.1,0.3-0.2,0.4c-0.3,0.8-0.7,1.6-1,2.4c-0.1,0.1-0.1,0.3-0.2,0.4c-0.3,0.9-0.6,1.7-0.8,2.6
			c-0.6,2.2-2.7,3.7-5,3.7h0l0,0h26.6c5.4-4.9,12.7-7.9,20.6-7.9C166.1,313.8,170.9,315,175.2,317.2z"/>
		<path class="st8" d="M245.8,286c9.4,7.5,15.7,18.6,17,31.3c0.5,0.2,0.9,0.5,1.4,0.8c0,0,0,0,0,0c0,0,0,0,0.1,0
			c1.1,0.6,2.1,1.4,3.1,2.1c0,0,0.1,0.1,0.1,0.1c0.5,0.4,0.9,0.7,1.4,1.1c0,0,0.1,0.1,0.1,0.1c0.1,0.1,0.2,0.1,0.2,0.2h26.6
			c-2.3,0-4.3-1.5-5-3.7c-0.2-0.9-0.5-1.8-0.8-2.6c-0.1-0.2-0.1-0.3-0.2-0.5c-0.3-0.8-0.6-1.6-1-2.4c-0.1-0.1-0.1-0.3-0.2-0.4
			c-0.4-0.8-0.8-1.7-1.2-2.5c0,0,0,0,0,0c-0.4-0.8-0.9-1.7-1.4-2.5c0-0.1-0.1-0.1-0.1-0.2c-0.5-0.8-1-1.6-1.5-2.4
			c0,0-0.1-0.1-0.1-0.1c-1.7-2.4-3.6-4.6-5.7-6.6h0c-7.9-7.4-18.4-12-30.1-12C247.7,285.9,246.8,285.9,245.8,286z"/>
		<path class="st8" d="M203.8,320.5c-0.2-1-0.5-2-0.8-3c0-0.1-0.1-0.2-0.1-0.3c-0.3-1-0.6-1.9-1-2.8c-0.1-0.1-0.1-0.3-0.2-0.4
			c-0.4-0.9-0.7-1.8-1.2-2.7c-0.1-0.1-0.1-0.2-0.2-0.4c-0.4-0.9-0.9-1.8-1.4-2.7c0,0,0-0.1-0.1-0.1c-1.1-1.8-2.2-3.6-3.5-5.3
			c0,0-0.1-0.1-0.1-0.1c-0.6-0.8-1.3-1.6-2-2.4c0-0.1-0.1-0.1-0.1-0.2c-0.7-0.8-1.4-1.5-2.2-2.2c-7.9-7.4-18.4-12-30.1-12
			c-0.9,0-1.9,0-2.8,0.1c9.4,7.5,15.8,18.7,17,31.3c0.5,0.2,0.9,0.5,1.4,0.8c0,0,0,0,0,0c0,0,0,0,0,0c1.1,0.7,2.2,1.4,3.2,2.2
			c0,0,0.1,0.1,0.1,0.1c0.5,0.4,0.9,0.8,1.4,1.2c0,0,0,0,0.1,0.1c0.1,0.1,0.2,0.2,0.3,0.2h22.6c-0.1-0.1-0.2-0.3-0.3-0.5
			C203.9,320.9,203.9,320.6,203.8,320.5z"/>
		<path class="st5" d="M456.9,341.8h-53.7c-4.3,0-7.7,3.5-7.7,7.8c0,4.3,3.5,7.7,7.7,7.7h55.2c-0.9-0.9-1.5-2.2-1.5-3.6V341.8z"/>
		<path class="st10" d="M203.9,321.2c0-0.3-0.1-0.6-0.1-0.7C203.9,320.6,203.9,320.9,203.9,321.2c0,0.2,0.1,0.4,0.3,0.5
			c0.2,0.2,0.4,0.3,0.6,0.3c0,0,0,0,0,0C204.4,322,204,321.6,203.9,321.2z"/>
		<path class="st10" d="M122,309.6C122,309.6,122,309.6,122,309.6C122,309.6,122,309.6,122,309.6z"/>
		<path class="st10" d="M125.1,304.4c0,0-0.1,0.1-0.1,0.1C125.1,304.5,125.1,304.5,125.1,304.4z"/>
		<path class="st10" d="M207.8,313.8c-0.1,0.1-0.1,0.3-0.2,0.4C207.7,314.1,207.8,314,207.8,313.8z"/>
		<path class="st10" d="M119.7,314.9c-0.1,0.1-0.1,0.3-0.2,0.4C119.6,315.2,119.6,315.1,119.7,314.9z"/>
		<path class="st10" d="M123.5,306.9c0,0.1-0.1,0.1-0.1,0.2C123.4,307,123.5,307,123.5,306.9z"/>
		<path class="st10" d="M210.6,308C210.6,308,210.5,308.1,210.6,308C210.5,308.1,210.6,308,210.6,308z"/>
		<path class="st10" d="M214.2,302.6C214.2,302.6,214.2,302.6,214.2,302.6C214.2,302.6,214.2,302.6,214.2,302.6z"/>
		<path class="st10" d="M209.1,310.8c-0.1,0.1-0.1,0.2-0.2,0.3C209,311,209.1,310.9,209.1,310.8z"/>
		<path class="st10" d="M206.7,317.1c0,0.1-0.1,0.3-0.1,0.4C206.6,317.3,206.7,317.2,206.7,317.1z"/>
		<path class="st10" d="M216.3,300.1C216.3,300.1,216.3,300.1,216.3,300.1C216.3,300.1,216.3,300.1,216.3,300.1z"/>
		<path class="st10" d="M120.8,312c-0.1,0.1-0.1,0.3-0.2,0.4C120.7,312.3,120.8,312.2,120.8,312z"/>
		<path class="st10" d="M295.9,321.7c-2.3,0-4.3-1.5-5-3.7C291.5,320.2,293.6,321.7,295.9,321.7z"/>
		<path class="st10" d="M286.1,306.9c0,0.1,0.1,0.1,0.1,0.2C286.2,307,286.2,307,286.1,306.9z"/>
		<path class="st10" d="M287.6,309.6C287.6,309.6,287.6,309.6,287.6,309.6C287.6,309.6,287.6,309.6,287.6,309.6z"/>
		<path class="st10" d="M290,314.9c0.1,0.1,0.1,0.3,0.2,0.5C290.1,315.2,290,315.1,290,314.9z"/>
		<path class="st10" d="M288.8,312c0.1,0.1,0.1,0.3,0.2,0.4C288.9,312.3,288.9,312.2,288.8,312z"/>
		<path class="st10" d="M284.5,304.4c0,0,0.1,0.1,0.1,0.1C284.6,304.5,284.5,304.5,284.5,304.4z"/>
		<path class="st10" d="M203,317.1c0,0.1,0.1,0.2,0.1,0.3C203,317.4,203,317.2,203,317.1z"/>
		<path class="st10" d="M193.3,300.1c0,0.1,0.1,0.1,0.1,0.2C193.4,300.2,193.3,300.1,193.3,300.1z"/>
		<path class="st10" d="M201.8,313.9c0.1,0.1,0.1,0.3,0.2,0.4C202,314.2,201.9,314,201.8,313.9z"/>
		<path class="st10" d="M199.1,308c0,0,0,0.1,0.1,0.1C199.1,308.1,199.1,308,199.1,308z"/>
		<path class="st10" d="M200.5,310.8c0.1,0.1,0.1,0.2,0.2,0.4C200.6,311.1,200.6,310.9,200.5,310.8z"/>
		<path class="st10" d="M195.4,302.6c0,0,0.1,0.1,0.1,0.1C195.5,302.7,195.4,302.6,195.4,302.6z"/>
		<path class="st5" d="M575.9,285.2c0-5-3.6-9.3-8.5-10.2l-58.7-10.8c-5.5-1-10.1-4.9-11.9-10.3l-3-9h0h-58.2
			c-2.8,0-5.2-2.3-5.2-5.2v-35c0-2.8,2.3-5.2,5.2-5.2h42.9h0L468,168.3h12.6c6.6,0,12.5,4.2,14.7,10.5c-2.1-6.3-8-10.5-14.7-10.5
			h-70.6c-8.6,0-15.5,6.9-15.5,15.5V245v53.8v0v12.6c0,5.7,4.6,10.3,10.3,10.3h46.8c2.8,0,5.2,2.3,5.2,5.2v14.9v11.9
			c0,1.4,0.6,2.7,1.5,3.6c0.9,1,2.3,1.6,3.7,1.6h16.2c2.9,0,5.2-2.3,5.2-5.2v-18.6v-4.7c0-22.5,16.7-41.6,38.6-44.3
			c1.5-0.2,3-0.3,4.5-0.3c24.6-0.4,44.6,19.4,44.6,43.9v5.4v18.6c0,2.7,2.1,4.9,4.7,5.1c0,0,0,0-0.1,0V285.2z"/>
		<path class="st11" d="M592.6,358.9L592.6,358.9c2.5,0,4.6-1.8,5.1-4.1C597.2,357.1,595.1,358.9,592.6,358.9z"/>
		<path class="st11" d="M585.1,255.6c6.4,1.2,11.3,6.2,12.5,12.5C596.4,261.8,591.5,256.8,585.1,255.6L527.3,245h0L585.1,255.6z"/>
		<path class="st12" d="M233.1,370.9c-1.1-0.6-2.1-1.3-3.1-2.1C231,369.6,232,370.3,233.1,370.9z"/>
		<path class="st12" d="M279.3,342.6c0,0.6,0.1,1.3,0.1,1.9C279.4,343.8,279.4,343.2,279.3,342.6z"/>
		<path class="st12" d="M234.8,371.8c-0.5-0.2-1-0.5-1.4-0.8C233.8,371.3,234.3,371.6,234.8,371.8z"/>
		<path class="st6" d="M214.3,364.7c5.9,3.5,12.8,5.5,20.2,5.5c22,0,39.9-17.9,39.9-39.9c0-7.4-2-14.3-5.5-20.2
			c-0.6-0.3-1.2-0.7-1.8-1c-5.5-2.9-11.8-4.5-18.4-4.5c-10.3,0-19.7,3.9-26.8,10.3c-8.1,7.3-13.1,17.8-13.1,29.6
			c0,11.9,5.3,22.6,13.6,30C219.2,371.6,216.5,368.3,214.3,364.7z M248.7,356.4c-6.6,0-12-5.4-12-12c0-6.6,5.4-12,12-12
			c6.6,0,12,5.4,12,12C260.6,351.1,255.3,356.4,248.7,356.4z"/>
		<path class="st12" d="M278.8,338.3c0.1,0.6,0.2,1.2,0.3,1.8C279,339.5,278.9,338.9,278.8,338.3z"/>
		<path class="st12" d="M248.7,375.2c-0.6,0-1.3,0-1.9-0.1C247.4,375.1,248,375.2,248.7,375.2z"/>
		<path class="st12" d="M279.1,340.6c0.1,0.5,0.1,0.9,0.1,1.4C279.2,341.6,279.2,341.1,279.1,340.6z"/>
		<path class="st12" d="M229.9,368.7c-0.5-0.4-1-0.8-1.4-1.2C229,368,229.4,368.4,229.9,368.7z"/>
		<path class="st12" d="M238.5,373.4c-1.2-0.4-2.3-0.9-3.4-1.4C236.2,372.5,237.3,373,238.5,373.4z"/>
		<path class="st12" d="M246.2,375.1c-0.5,0-0.9-0.1-1.4-0.1C245.3,375,245.8,375,246.2,375.1z"/>
		<path class="st12" d="M244.3,374.9c-1.2-0.2-2.4-0.4-3.6-0.7C241.9,374.4,243.1,374.7,244.3,374.9z"/>
		<path class="st12" d="M240.3,374c-0.5-0.1-0.9-0.3-1.4-0.4C239.3,373.7,239.8,373.9,240.3,374z"/>
		<path class="st12" d="M277.8,334.7c0.1,0.4,0.3,0.9,0.4,1.3C278.1,335.6,277.9,335.1,277.8,334.7z"/>
		<path class="st12" d="M271.8,324.3c0.4,0.4,0.7,0.9,1.1,1.3C272.6,325.2,272.2,324.8,271.8,324.3z"/>
		<path class="st12" d="M276.2,330.9c0.5,1.1,1,2.2,1.4,3.4C277.2,333.1,276.7,331.9,276.2,330.9z"/>
		<path class="st12" d="M273.1,325.8c0.8,1,1.4,2,2.1,3.1C274.5,327.8,273.8,326.8,273.1,325.8z"/>
		<path class="st12" d="M275.3,329.2c0.3,0.4,0.5,0.9,0.7,1.4C275.8,330.1,275.6,329.6,275.3,329.2z"/>
		<path class="st12" d="M278.3,336.5c0.2,0.6,0.3,1.2,0.4,1.8C278.6,337.7,278.5,337.1,278.3,336.5z"/>
		<path class="st12" d="M268.9,321.4c-0.4-0.4-0.9-0.8-1.4-1.1C268,320.6,268.5,321,268.9,321.4z"/>
		<path class="st12" d="M269,321.5c0.9,0.8,1.8,1.7,2.7,2.7c-0.8-0.9-1.6-1.7-2.4-2.5c0,0,0,0,0,0
			C269.2,321.6,269.1,321.6,269,321.5z"/>
		<path class="st12" d="M267.4,320.2c-1-0.8-2-1.5-3.1-2.1C265.4,318.7,266.4,319.4,267.4,320.2z"/>
		<path class="st12" d="M184.1,324.3c0.4,0.4,0.7,0.9,1.1,1.3C184.9,325.2,184.5,324.8,184.1,324.3z"/>
		<path class="st12" d="M156.6,374.9c-1.2-0.2-2.4-0.4-3.6-0.7C154.2,374.4,155.4,374.7,156.6,374.9z"/>
		<path class="st6" d="M146.8,370.2c22,0,39.9-17.9,39.9-39.9c0-7.4-2-14.3-5.5-20.2c-0.6-0.3-1.2-0.7-1.8-1
			c-5.5-2.9-11.8-4.5-18.4-4.5c-10.3,0-19.7,3.9-26.8,10.3c-8.1,7.3-13.1,17.8-13.1,29.6c0,9.2,3.1,17.7,8.4,24.4
			c-1-1.3-2-2.7-2.8-4.2C132.5,368.2,139.4,370.2,146.8,370.2z M161,356.4c-6.6,0-12-5.4-12-12c0-6.6,5.4-12,12-12
			c6.6,0,12,5.4,12,12C172.9,351.1,167.6,356.4,161,356.4z"/>
		<path class="st12" d="M142.2,368.7c-0.5-0.4-0.9-0.7-1.4-1.1C141.2,368,141.7,368.4,142.2,368.7z"/>
		<path class="st12" d="M152.5,374c-0.5-0.1-0.9-0.3-1.4-0.4C151.6,373.7,152.1,373.9,152.5,374z"/>
		<path class="st12" d="M147.1,371.8c-0.5-0.2-0.9-0.5-1.4-0.8C146.1,371.3,146.6,371.6,147.1,371.8z"/>
		<path class="st12" d="M150.7,373.4c-1.2-0.4-2.3-0.9-3.4-1.4C148.4,372.5,149.6,373,150.7,373.4z"/>
		<path class="st12" d="M145.4,370.9c-1.1-0.6-2.1-1.3-3.1-2.1C143.3,369.6,144.3,370.3,145.4,370.9z"/>
		<path class="st12" d="M191.4,340.6c0.1,0.5,0.1,0.9,0.1,1.4C191.5,341.6,191.5,341.1,191.4,340.6z"/>
		<path class="st12" d="M190.1,334.7c0.1,0.4,0.3,0.9,0.4,1.3C190.3,335.6,190.2,335.1,190.1,334.7z"/>
		<path class="st12" d="M190.6,336.5c0.2,0.6,0.3,1.2,0.4,1.8C190.9,337.7,190.8,337.1,190.6,336.5z"/>
		<path class="st12" d="M191,338.3c0.1,0.6,0.2,1.2,0.3,1.8C191.3,339.5,191.2,338.9,191,338.3z"/>
		<path class="st12" d="M188.5,330.9c0.5,1.1,1,2.2,1.4,3.4C189.5,333.1,189,332,188.5,330.9z"/>
		<path class="st12" d="M185.3,325.8c0.8,1,1.4,2,2.1,3.1C186.8,327.8,186.1,326.8,185.3,325.8z"/>
		<path class="st12" d="M187.6,329.2c0.3,0.4,0.5,0.9,0.7,1.3C188.1,330.1,187.8,329.6,187.6,329.2z"/>
		<path class="st12" d="M138,364.8c0.9,1,1.8,1.9,2.7,2.7C139.7,366.7,138.8,365.7,138,364.8z"/>
		<path class="st12" d="M191.6,342.6c0,0.6,0.1,1.3,0.1,1.9C191.7,343.8,191.6,343.2,191.6,342.6z"/>
		<path class="st12" d="M161,375.2c-0.6,0-1.3,0-1.9-0.1C159.7,375.1,160.3,375.2,161,375.2z"/>
		<path class="st12" d="M158.5,375.1c-0.5,0-0.9-0.1-1.4-0.1C157.6,375,158.1,375,158.5,375.1z"/>
		<path class="st12" d="M137.9,364.8c-0.4-0.5-0.8-1-1.2-1.5C137.1,363.8,137.5,364.3,137.9,364.8z"/>
		<path class="st12" d="M176.5,318c1.1,0.7,2.2,1.4,3.2,2.2C178.7,319.4,177.7,318.7,176.5,318z"/>
		<path class="st12" d="M179.8,320.3c0.5,0.4,0.9,0.8,1.4,1.2C180.8,321,180.3,320.6,179.8,320.3z"/>
		<path class="st12" d="M184,324.2c-0.8-0.9-1.6-1.7-2.4-2.5c-0.1-0.1-0.2-0.2-0.3-0.2C182.3,322.3,183.1,323.2,184,324.2z"/>
		<path class="st12" d="M557,336.6c0.1,0.4,0.2,0.8,0.3,1.2C557.2,337.4,557.1,337,557,336.6z"/>
		<path class="st12" d="M518.9,374c-0.5-0.1-0.9-0.3-1.4-0.4C518,373.7,518.5,373.9,518.9,374z"/>
		<path class="st12" d="M523,374.9c-1.2-0.2-2.4-0.4-3.6-0.7C520.5,374.4,521.8,374.7,523,374.9z"/>
		<path class="st12" d="M517.1,373.4c-1.2-0.4-2.3-0.9-3.4-1.4C514.8,372.5,516,373,517.1,373.4z"/>
		<path class="st12" d="M558,342.7c0,0.4,0,0.7,0,1.1C558,343.4,558,343.1,558,342.7z"/>
		<path class="st12" d="M513.5,371.8c-0.5-0.2-0.9-0.5-1.4-0.8C512.5,371.3,513,371.6,513.5,371.8z"/>
		<path class="st12" d="M527.3,375.2c-0.6,0-1.3,0-1.9-0.1C526.1,375.1,526.7,375.2,527.3,375.2z"/>
		<path class="st12" d="M524.9,375.1c-0.5,0-0.9-0.1-1.4-0.1C524,375,524.4,375,524.9,375.1z"/>
		<path class="st12" d="M511.8,370.9c-1.1-0.6-2.1-1.3-3.1-2.1C509.7,369.6,510.7,370.3,511.8,370.9z"/>
		<path class="st6" d="M553.1,330.3c0-7.4-2-14.3-5.5-20.2c-5.9-3.5-12.8-5.5-20.2-5.5c-17.8,0-32.9,11.7-38,27.7
			c-1.2,3.8-1.9,7.9-1.9,12.1c0,7.4,2,14.3,5.5,20.2c5.9,3.5,12.8,5.5,20.2,5.5C535.2,370.2,553.1,352.3,553.1,330.3z M527.3,356.4
			c-6.6,0-12-5.4-12-12c0-6.6,5.4-12,12-12c6.6,0,12,5.4,12,12C539.3,351.1,534,356.4,527.3,356.4z"/>
		<path class="st12" d="M504.4,364.8c0.8,1,1.8,1.9,2.7,2.7C506.1,366.7,505.2,365.8,504.4,364.8z"/>
		<path class="st12" d="M503.1,363.2c-0.8-1-1.5-2.1-2.1-3.2C501.6,361.2,502.3,362.2,503.1,363.2z"/>
		<path class="st12" d="M504.3,364.7c-0.4-0.5-0.8-0.9-1.2-1.4C503.5,363.8,503.9,364.3,504.3,364.7z"/>
		<path class="st12" d="M508.6,368.7c-0.5-0.4-0.9-0.7-1.4-1.1C507.6,368,508.1,368.4,508.6,368.7z"/>
		<path class="st12" d="M557.8,340.9c0,0.3,0.1,0.6,0.1,1C557.9,341.5,557.9,341.2,557.8,340.9z"/>
		<path class="st12" d="M557.5,338.9c0.1,0.4,0.1,0.7,0.2,1.1C557.7,339.6,557.6,339.2,557.5,338.9z"/>
		<path class="st12" d="M546.1,320.1c-0.9-0.7-1.9-1.4-2.9-2c-0.1,0-0.1-0.1-0.2-0.1C544.1,318.7,545.1,319.4,546.1,320.1z"/>
		<path class="st12" d="M554.9,330.9c0.2,0.5,0.5,1,0.7,1.4C555.4,331.9,555.1,331.4,554.9,330.9z"/>
		<path class="st12" d="M555.8,332.9c0.2,0.4,0.3,0.8,0.5,1.3C556.1,333.7,555.9,333.3,555.8,332.9z"/>
		<path class="st12" d="M552.8,327.4c0.3,0.5,0.6,1,0.9,1.5C553.5,328.3,553.2,327.8,552.8,327.4z"/>
		<path class="st12" d="M554,329.3c0.2,0.4,0.4,0.7,0.6,1.1C554.4,330,554.2,329.7,554,329.3z"/>
		<path class="st12" d="M550.3,324.1c-0.8-0.9-1.7-1.8-2.6-2.6C548.6,322.3,549.5,323.2,550.3,324.1z"/>
		<path class="st12" d="M556.8,335.8c-0.1-0.2-0.1-0.5-0.2-0.7c0-0.1-0.1-0.2-0.1-0.3C556.6,335.2,556.7,335.5,556.8,335.8z"/>
		<path class="st12" d="M551.8,325.9c0.4,0.5,0.7,1,1.1,1.5C552.5,326.8,552.1,326.3,551.8,325.9z"/>
		<path class="st12" d="M546.3,320.3c0.4,0.3,0.9,0.7,1.3,1.1C547.1,321,546.7,320.6,546.3,320.3z"/>
		<path class="st12" d="M550.6,324.4c0.3,0.4,0.6,0.8,1,1.2C551.2,325.2,550.9,324.8,550.6,324.4z"/>
		<path class="st6" d="M275.1,314.6c0,0-0.1-0.1-0.1-0.1c-0.6-0.5-1.2-1-1.8-1.5c-0.1,0-0.1-0.1-0.2-0.1c-1.3-1-2.7-1.9-4.1-2.8
			c0,0,0,0-0.1,0c0,0,0,0,0,0c3.5,5.9,5.5,12.8,5.5,20.2c0,22-17.9,39.9-39.9,39.9c-7.4,0-14.3-2-20.2-5.5c2.2,3.7,4.9,6.9,8.1,9.7
			c0,0,0.1,0.1,0.1,0.1c0.6,0.5,1.2,1,1.8,1.5c0,0,0.1,0.1,0.1,0.1c1.3,1,2.7,1.9,4.1,2.7c0.1,0.1,0.2,0.1,0.3,0.2
			c0.6,0.3,1.2,0.7,1.8,1c0.1,0.1,0.2,0.1,0.4,0.2c1.4,0.7,2.9,1.3,4.4,1.9c0.2,0.1,0.4,0.1,0.5,0.2c0.6,0.2,1.2,0.4,1.8,0.6
			c0.2,0.1,0.4,0.1,0.6,0.2c1.5,0.4,3.1,0.7,4.7,1c0.2,0,0.5,0.1,0.7,0.1c0.6,0.1,1.2,0.1,1.8,0.2c0.2,0,0.5,0,0.7,0.1
			c0.8,0,1.6,0.1,2.5,0.1c21.3,0,38.8-16.8,39.8-37.8c0-0.7,0.1-1.4,0.1-2.1c0-0.8,0-1.6-0.1-2.5c0-0.2,0-0.5-0.1-0.7
			c0-0.6-0.1-1.2-0.2-1.8c0-0.2-0.1-0.5-0.1-0.7c-0.1-0.8-0.2-1.6-0.4-2.4c0,0,0,0,0,0c-0.2-0.8-0.4-1.6-0.6-2.3
			c-0.1-0.2-0.1-0.4-0.2-0.6c-0.2-0.6-0.3-1.2-0.5-1.8c-0.1-0.2-0.1-0.4-0.2-0.6c-0.5-1.5-1.2-3-1.9-4.4c-0.1-0.1-0.1-0.3-0.2-0.4
			c-0.3-0.6-0.6-1.2-1-1.8c-0.1-0.1-0.1-0.3-0.2-0.4c-0.8-1.4-1.7-2.7-2.7-4c-0.1-0.1-0.1-0.1-0.2-0.2c-0.5-0.6-0.9-1.1-1.4-1.7
			c-0.1-0.1-0.1-0.1-0.2-0.2C277.5,316.9,276.3,315.7,275.1,314.6z"/>
		<path class="st6" d="M187.4,314.6C187.4,314.6,187.3,314.6,187.4,314.6c-0.7-0.6-1.3-1.1-1.9-1.6c0,0-0.1-0.1-0.1-0.1
			c-1.3-1-2.7-2-4.1-2.8c0,0,0,0,0,0c0,0,0,0,0,0c3.5,5.9,5.5,12.8,5.5,20.2c0,22-17.9,39.9-39.9,39.9c-7.4,0-14.3-2-20.2-5.5
			c0.9,1.5,1.8,2.9,2.8,4.2c0,0,0,0,0,0.1c0.5,0.7,1,1.3,1.6,1.9c0,0,0,0,0,0c1.1,1.2,2.3,2.4,3.5,3.5c0.1,0,0.1,0.1,0.2,0.1
			c0.6,0.5,1.2,1,1.8,1.5c0.1,0,0.1,0.1,0.2,0.1c1.3,1,2.6,1.9,4,2.7c0.1,0.1,0.2,0.1,0.3,0.2c0.6,0.3,1.2,0.7,1.8,1
			c0.1,0.1,0.2,0.1,0.4,0.2c1.4,0.7,2.9,1.3,4.4,1.9c0.2,0.1,0.4,0.1,0.5,0.2c0.6,0.2,1.2,0.4,1.8,0.6c0.2,0.1,0.4,0.1,0.6,0.2
			c1.5,0.4,3.1,0.7,4.7,1c0.2,0,0.5,0.1,0.7,0.1c0.6,0.1,1.2,0.1,1.8,0.2c0.2,0,0.5,0,0.7,0.1c0.8,0,1.6,0.1,2.5,0.1
			c22,0,39.9-17.9,39.9-39.9c0-0.8,0-1.6-0.1-2.5c0-0.2,0-0.5-0.1-0.7c0-0.6-0.1-1.2-0.2-1.8c0-0.2-0.1-0.5-0.1-0.7
			c-0.1-0.8-0.2-1.6-0.4-2.3c0,0,0,0,0,0c-0.2-0.8-0.4-1.6-0.6-2.3c-0.1-0.2-0.1-0.4-0.2-0.6c-0.2-0.6-0.3-1.2-0.5-1.7
			c-0.1-0.2-0.1-0.4-0.2-0.6c-0.5-1.5-1.1-3-1.8-4.4c-0.1-0.1-0.2-0.3-0.2-0.4c-0.3-0.6-0.6-1.2-0.9-1.7c-0.1-0.1-0.2-0.3-0.2-0.4
			c-0.8-1.4-1.7-2.7-2.7-4c-0.1-0.1-0.1-0.1-0.2-0.2c-0.4-0.6-0.9-1.1-1.4-1.7c-0.1-0.1-0.1-0.1-0.2-0.2
			C189.8,316.9,188.6,315.7,187.4,314.6z"/>
		<path class="st6" d="M565.2,332c-0.1-0.3-0.2-0.6-0.3-0.9c-0.2-0.6-0.4-1.1-0.6-1.7c-0.1-0.2-0.2-0.4-0.3-0.6
			c-0.3-0.6-0.6-1.3-0.9-1.9c-0.1-0.2-0.2-0.5-0.4-0.7c-0.3-0.5-0.5-1-0.8-1.4c-0.1-0.2-0.2-0.4-0.4-0.6c-0.4-0.6-0.8-1.3-1.2-1.9
			c0,0,0,0,0,0c-0.4-0.7-0.9-1.3-1.4-1.9c-0.1-0.1-0.2-0.3-0.3-0.4c-0.4-0.5-0.8-1-1.2-1.5c-0.1-0.1-0.2-0.2-0.3-0.3
			c-1.1-1.2-2.2-2.3-3.4-3.4c-0.1-0.1-0.1-0.1-0.2-0.2c-0.5-0.5-1.1-0.9-1.7-1.4c-0.1-0.1-0.2-0.1-0.3-0.2c-1.3-1-2.6-1.9-4-2.7
			c0,0-0.1,0-0.1-0.1c0,0,0,0,0,0c3.5,5.9,5.5,12.8,5.5,20.2c0,22-17.9,39.9-39.9,39.9c-7.4,0-14.3-2-20.2-5.5c0,0,0,0,0,0
			c0,0,0,0,0,0.1c0.8,1.4,1.8,2.8,2.8,4.1c0,0.1,0.1,0.1,0.1,0.2c0.5,0.6,1,1.2,1.5,1.8c0,0,0,0,0.1,0.1c1.1,1.2,2.3,2.4,3.5,3.5
			c0.1,0,0.1,0.1,0.2,0.1c0.6,0.5,1.2,1,1.8,1.5c0.1,0,0.1,0.1,0.2,0.1c1.3,1,2.6,1.9,4.1,2.7c0.1,0.1,0.2,0.1,0.3,0.2
			c0.6,0.3,1.2,0.7,1.8,1c0.1,0.1,0.2,0.1,0.4,0.2c1.4,0.7,2.9,1.3,4.4,1.9c0.2,0.1,0.4,0.1,0.5,0.2c0.6,0.2,1.2,0.4,1.8,0.6
			c0.2,0.1,0.4,0.1,0.6,0.2c1.5,0.4,3.1,0.7,4.7,1c0.2,0,0.5,0.1,0.7,0.1c0.6,0.1,1.2,0.1,1.8,0.2c0.2,0,0.5,0,0.7,0.1
			c0.8,0,1.6,0.1,2.5,0.1c1.4,0,2.7-0.1,4.1-0.2c20.1-2,35.8-19,35.8-39.7c0-0.3,0-0.6,0-0.9c0-0.5,0-1,0-1.4c0-0.4-0.1-0.8-0.1-1.2
			c0-0.4-0.1-0.8-0.1-1.2c0-0.4-0.1-0.8-0.1-1.1c-0.1-0.5-0.2-1-0.2-1.4c-0.1-0.5-0.2-1-0.3-1.4c-0.1-0.5-0.2-1-0.4-1.5
			c-0.1-0.3-0.2-0.7-0.3-1C565.5,332.8,565.4,332.4,565.2,332z"/>
		<path class="st11" d="M161,335.2c-5.1,0-9.2,4.1-9.2,9.2c0,5.1,4.1,9.2,9.2,9.2c5.1,0,9.2-4.1,9.2-9.2
			C170.2,339.4,166,335.2,161,335.2z"/>
		<path class="st11" d="M248.7,335.2c-5.1,0-9.2,4.1-9.2,9.2c0,5.1,4.1,9.2,9.2,9.2c5.1,0,9.2-4.1,9.2-9.2
			C257.9,339.4,253.8,335.2,248.7,335.2z"/>
		<path class="st11" d="M527.3,335.2c-5.1,0-9.2,4.1-9.2,9.2c0,5.1,4.1,9.2,9.2,9.2c5.1,0,9.2-4.1,9.2-9.2
			C536.6,339.4,532.4,335.2,527.3,335.2z"/>
		<path class="st5" d="M597.5,268.1c-1.1-6.3-6-11.3-12.5-12.5L527.3,245h-33.6l3,9c1.8,5.3,6.3,9.3,11.9,10.3l58.7,10.8
			c4.9,0.9,8.5,5.2,8.5,10.2v73.6c0,0,0,0,0.1,0c0.1,0,0.3,0,0.4,0h0h16.2c2.5,0,4.6-1.8,5.1-4.1c0.1-0.3,0.1-0.7,0.1-1v-82.9
			C597.8,269.9,597.7,269,597.5,268.1z"/>
		<path class="st5" d="M480.7,168.3H468l10.5,31.4h23.9l-7.1-20.9C493.2,172.6,487.3,168.3,480.7,168.3z"/>
		<path class="st7" d="M435.6,199.7c-2.9,0-5.2,2.3-5.2,5.2v35c0,2.9,2.3,5.2,5.2,5.2h58.2l-15.2-45.3H435.6z"/>
		<path class="st7" d="M478.6,199.7l15.2,45.3h0h33.6h0h0l-1.2-0.2c-5.5-1-10.1-4.9-11.9-10.3l-11.8-34.8H478.6L478.6,199.7z"/>
		<path class="st6" d="M171.1,343.8c-4.3-1.8-7.7-5.2-9.5-9.5c-0.2-0.6-1-0.6-1.3,0c-1.8,4.3-5.2,7.7-9.5,9.5c-0.6,0.2-0.6,1,0,1.3
			c4.3,1.8,7.7,5.2,9.5,9.5c0.2,0.6,1,0.6,1.3,0c1.8-4.3,5.2-7.7,9.5-9.5C171.6,344.9,171.6,344.1,171.1,343.8z"/>
		<path class="st6" d="M258.8,343.8c-4.3-1.8-7.7-5.2-9.5-9.5c-0.2-0.6-1-0.6-1.3,0c-1.8,4.3-5.2,7.7-9.5,9.5c-0.6,0.2-0.6,1,0,1.3
			c4.3,1.8,7.7,5.2,9.5,9.5c0.2,0.6,1,0.6,1.3,0c1.8-4.3,5.2-7.7,9.5-9.5C259.4,344.9,259.4,344.1,258.8,343.8z"/>
		<path class="st6" d="M537.4,343.8c-4.3-1.8-7.7-5.2-9.5-9.5c-0.2-0.6-1-0.6-1.3,0c-1.8,4.3-5.2,7.7-9.5,9.5c-0.6,0.2-0.6,1,0,1.3
			c4.3,1.8,7.7,5.2,9.5,9.5c0.2,0.6,1,0.6,1.3,0c1.8-4.3,5.2-7.7,9.5-9.5C538,344.9,538,344.1,537.4,343.8z"/>
	</g>
</g>
</svg>
